<?xml version="1.0" standalone="no"?><!DOCTYPE svg PUBLIC "-//W3C//DTD SVG 1.1//EN" "http://www.w3.org/Graphics/SVG/1.1/DTD/svg11.dtd"><svg t="1546594198595" class="icon" style="" viewBox="0 0 1024 1024" version="1.1" xmlns="http://www.w3.org/2000/svg" p-id="5138" xmlns:xlink="http://www.w3.org/1999/xlink" width="200" height="200"><defs><style type="text/css"></style></defs><path d="M920 920H104c-39.84 0-72-32.16-72-72V368c0-39.84 32.16-72 72-72h816c39.84 0 72 32.16 72 72v480c0 39.84-32.16 72-72 72zM104 344c-13.44 0-24 10.56-24 24v480c0 13.44 10.56 24 24 24h816c13.44 0 24-10.56 24-24V368c0-13.44-10.56-24-24-24H104z" fill="" p-id="5139"></path><path d="M392 344H248V147.2c0-13.44 10.56-24 24-24s24 10.56 24 24v148.8h48V147.2c0-13.44 10.56-24 24-24s24 10.56 24 24v196.8zM776 344h-144V147.2c0-13.44 10.56-24 24-24s24 10.56 24 24v148.8h48V147.2c0-13.44 10.56-24 24-24s24 10.56 24 24v196.8z" fill="" p-id="5140"></path><path d="M491.36 761.12H415.52l-24.48-74.88H272.48l-24 74.88H172.64l119.52-326.88h82.08l117.12 326.88z m-116.64-128.64l-36.96-113.28c-2.4-7.2-4.32-16.8-5.28-28.32h-1.92c-0.96 9.6-2.88 18.72-5.76 27.84l-37.44 114.24h87.36zM556.64 761.12v-326.4h112.8c116.16 0 174.24 53.28 174.24 159.36 0 50.4-16.32 91.2-48.96 121.44-32.64 30.72-74.4 46.08-125.76 46.08h-112.32z m69.6-269.76V704h37.92c33.12 0 59.04-10.08 77.76-29.76 18.72-19.68 28.32-46.56 28.32-80.16 0-32.64-10.08-57.6-29.76-75.84-19.68-18.24-45.12-27.36-76.8-27.36h-37.44z" fill="" p-id="5141"></path></svg>