<?xml version="1.0" standalone="no"?><!DOCTYPE svg PUBLIC "-//W3C//DTD SVG 1.1//EN" "http://www.w3.org/Graphics/SVG/1.1/DTD/svg11.dtd"><svg t="1546594029048" class="icon" style="" viewBox="0 0 1024 1024" version="1.1" xmlns="http://www.w3.org/2000/svg" p-id="5138" xmlns:xlink="http://www.w3.org/1999/xlink" width="200" height="200"><defs><style type="text/css"></style></defs><path d="M683.646875 303.059375c0-39.121875-6.553125-69.609375-23.990625-86.990625-17.353125-19.51875-45.646875-32.596875-82.63125-32.596875h-69.553125v237.065625h65.221875c36.95625 0 67.44375-10.884375 84.853125-32.596875 17.38125-17.4375 26.1-47.896875 26.1-84.88125z" p-id="5139"></path><path d="M579.246875 898.971875H176.8625c-36.95625 0-69.609375-28.265625-69.609375-65.221875V516.21875h652.471875c21.7125 0 43.48125 2.1375 43.48125 4.359375V181.30625c0-60.946875-45.646875-108.759375-104.4-108.759375H176.8625C116 72.546875 63.771875 122.553125 63.771875 181.30625v652.415625c0 60.91875 52.228125 108.73125 113.090625 108.73125h450.225c-17.4375-10.828125-32.653125-26.04375-47.840625-43.48125z m-106.59375-745.93125h108.759375c45.675 0 82.659375 15.1875 106.509375 43.509375 19.63125 26.071875 32.653125 60.834375 32.653125 106.5375 0 45.675-13.021875 82.659375-36.928125 108.7875-26.128125 28.2375-60.890625 43.48125-108.73125 43.48125h-104.428125V153.040625h2.165625z m-206.634375 0h34.790625l119.615625 300.121875H383.46875l-32.653125-87.01875H216.0125l-32.625 87.01875H146.403125L266.01875 153.040625z" p-id="5140"></path><path d="M285.621875 198.6875L229.034375 337.878125h108.7875L285.621875 198.6875z m228.346875 432.7875H165.978125a21.76875 21.76875 0 0 0 0 43.509375H513.96875c10.85625 0 21.76875-10.85625 21.76875-21.740625 0-10.9125-10.9125-21.76875-21.76875-21.76875z m0 126.140625H165.978125a21.796875 21.796875 0 0 0-21.740625 21.740625c0 13.078125 8.690625 21.740625 21.740625 21.740625H513.96875a21.825 21.825 0 0 0 21.76875-21.740625c0-10.828125-10.9125-21.740625-21.76875-21.740625z m445.865625-32.625l-10.940625-54.365625c-4.33125-15.271875-19.546875-28.321875-34.734375-30.43125l-21.740625-2.221875c-2.165625 0-2.165625 0-4.303125-2.1375v-8.71875l2.1375-21.76875c2.165625-17.38125-6.496875-34.7625-21.76875-41.315625L818.478125 540.125h-2.1375c-4.359375-2.165625-8.71875-2.165625-13.078125-2.165625-10.85625 0-21.740625 4.33125-28.265625 10.85625l-15.215625 15.215625-4.33125 4.33125c-2.19375 0-2.19375-2.109375-4.359375-4.33125l-15.271875-15.215625c-6.496875-6.496875-17.353125-10.85625-28.209375-10.85625-8.746875 0-15.271875 2.165625-17.409375 4.33125l-50.00625 23.9625c-13.05 8.690625-23.9625 23.90625-21.740625 39.09375l2.1375 23.9625v4.359375s-4.33125 2.165625-6.496875 2.165625l-19.575 2.1375c-15.1875 2.221875-30.459375 13.078125-34.790625 30.4875l-10.85625 54.421875c-4.359375 15.159375 2.165625 32.540625 17.38125 43.453125l17.409375 10.9125 6.525 6.496875c0 2.165625 0 2.165625-2.221875 4.33125l-12.99375 19.575c-8.746875 12.99375-8.746875 32.596875 2.109375 45.646875l34.846875 45.646875c8.6625 8.71875 19.575 15.271875 30.43125 15.271875 4.33125 0 8.690625 0 13.05-2.19375l21.7125-6.525h6.553125c0 2.165625 2.1375 2.165625 2.1375 4.359375l6.496875 19.546875c4.33125 17.409375 21.740625 26.128125 36.95625 26.128125h54.421875c15.24375 0 30.403125-10.9125 34.7625-26.128125l6.525-19.546875c0-2.19375 2.165625-2.19375 2.165625-4.359375h6.525l17.409375 6.525c4.303125 2.19375 10.85625 2.19375 13.05 2.19375 13.05 0 26.1-6.553125 32.56875-15.271875l34.81875-43.425c8.690625-10.9125 10.884375-30.54375 2.165625-45.675l-10.884375-17.409375c0-2.165625-2.1375-4.359375-2.1375-6.525l4.359375-4.359375 19.490625-10.9125c10.940625-13.021875 17.49375-32.596875 15.328125-45.646875z m-37.0125 6.58125l-19.546875 13.021875c-4.33125 4.359375-17.409375 15.215625-19.546875 26.071875-2.19375 10.9125 2.1375 26.128125 8.690625 32.653125l13.021875 19.575-32.540625 45.703125h-2.25l-21.7125-6.609375c-15.215625-4.275-30.459375 0-34.81875 2.25-8.690625 4.359375-17.38125 17.38125-21.684375 26.071875l-6.525 19.575-2.165625 2.165625h-56.559375l-8.71875-17.38125c-2.1375-10.85625-10.85625-23.9625-19.575-28.265625-6.525-4.415625-15.1875-4.415625-17.409375-4.415625-6.46875 0-13.021875 2.25-21.740625 4.415625l-19.51875 6.553125h-4.3875l-32.596875-43.59375v-4.359375l10.884375-17.325c6.496875-8.746875 10.884375-21.740625 8.746875-34.846875-2.221875-13.021875-15.24375-23.878125-21.76875-28.2375l-19.546875-10.9125s-2.165625-2.109375 0-2.109375l13.021875-56.559375 19.575-2.19375c10.884375 0 26.128125-6.525 32.625-15.215625 6.496875-8.6625 10.884375-21.740625 8.71875-32.653125l-2.19375-21.684375c0-2.221875 2.19375-4.359375 2.19375-4.359375l47.840625-21.740625h4.359375l15.215625 15.215625c8.71875 6.525 19.546875 13.021875 30.43125 13.021875 10.9125 0 26.1-6.46875 30.459375-15.1875l15.24375-15.215625h2.1375l50.034375 21.740625 2.1375 2.165625-2.1375 21.684375c0 4.359375 0 21.740625 8.690625 32.68125 4.359375 6.525 15.24375 13.021875 30.459375 15.215625l19.546875 2.165625 2.19375 2.165625 10.85625 52.171875v6.58125h-0.140625z" p-id="5141"></path><path d="M755.39375 646.690625c-54.39375 0-100.06875 45.646875-100.06875 100.096875 0 54.365625 45.675 100.06875 100.06875 100.06875 52.171875 0 97.846875-45.703125 100.0125-100.06875 0-54.45-45.646875-100.096875-100.0125-100.096875z m0 160.9875c-34.81875 0-63.1125-28.29375-63.1125-63.084375s28.29375-63.028125 63.1125-63.028125c32.540625 0 60.890625 28.2375 63.028125 63.028125-2.1375 36.95625-30.459375 63.084375-63.028125 63.084375z" p-id="5142"></path></svg>