<?xml version="1.0" standalone="no"?><!DOCTYPE svg PUBLIC "-//W3C//DTD SVG 1.1//EN" "http://www.w3.org/Graphics/SVG/1.1/DTD/svg11.dtd"><svg class="icon" width="64px" height="64.00px" viewBox="0 0 1024 1024" version="1.1" xmlns="http://www.w3.org/2000/svg"><path d="M957.171 712.013v0c0 18.44-14.947 33.388-33.388 33.388h-364.292v167.763c0 30.606-25.041 55.646-55.646 55.646v0c-30.606 0-55.646-25.041-55.646-55.646v-167.763h-347.983c-18.44 0-33.388-14.947-33.388-33.388v0c0-18.44 14.947-33.388 33.388-33.388h823.568c18.439 0 33.388 14.947 33.388 33.388zM642.964 254.693h-29.345v178.243h29.345c55.056 2.174 81.869-27.884 80.427-90.209 0.714-59.402-26.085-88.747-80.427-88.034zM335.169 373.159h74.992l-38.041-105.423-36.953 105.423zM927.122 154.182v467.431h-830.244v-467.431c0-48.969 40.065-89.034 89.034-89.034h652.176c48.969 0 89.034 40.065 89.034 89.034zM490.587 460.105l-90.208-233.672h-54.342l-91.295 233.672h47.82l21.736-58.69h96.729l22.824 58.69h46.735zM769.038 341.64c0.714-77.522-40.943-115.918-124.987-115.207h-76.078v233.672h78.254c85.485 3.618 126.43-35.865 122.813-118.466z" /></svg>
