<?xml version="1.0" standalone="no"?><!DOCTYPE svg PUBLIC "-//W3C//DTD SVG 1.1//EN" "http://www.w3.org/Graphics/SVG/1.1/DTD/svg11.dtd"><svg class="icon" width="64px" height="64.00px" viewBox="0 0 1024 1024" version="1.1" xmlns="http://www.w3.org/2000/svg"><path d="M693.837946 426.762174C757.656311 362.424623 781.490225 279.539168 737.526153 238.206722 693.562078 196.874274 609.307957 222.956186 545.489591 287.293737 481.671223 351.631285 457.837312 434.51674 501.801385 475.849188 545.765457 517.181636 630.019578 491.099723 693.837946 426.762174L693.837946 426.762174ZM657.808403 392.889308C610.655398 440.425918 554.662603 457.759185 536.594707 440.772809 518.526814 423.786432 534.366127 368.703213 581.519132 321.166601 628.672139 273.62999 684.664934 256.296723 702.732828 273.2831 720.800723 290.269476 704.96141 345.352698 657.808403 392.889308L657.808403 392.889308ZM720.133598 606.411296C783.951964 542.073745 807.785877 459.188292 763.821805 417.855844 719.85773 376.523396 635.60361 402.605308 571.785244 466.942859 507.966876 531.28041 484.132964 614.165862 528.097037 655.49831 572.061109 696.830758 656.31523 670.748847 720.133598 606.411296L720.133598 606.411296ZM684.104055 572.53843C636.951051 620.075042 580.958255 637.408309 562.890359 620.421933 544.822466 603.435554 560.661779 548.352335 607.814784 500.815725 654.967791 453.279113 710.960587 435.945845 729.02848 452.932222 747.096375 469.918598 731.257062 525.00182 684.104055 572.53843L684.104055 572.53843ZM650.472081 888.457933C674.792501 876.438007 698.775307 858.920787 720.133598 837.38874 783.951964 773.051189 807.785877 690.165734 763.821805 648.833289 719.85773 607.500841 635.60361 633.582752 571.785244 697.920303 507.966876 762.257852 484.132964 845.143307 528.097037 886.475755 538.046319 895.829487 553.900559 895.560073 563.508469 885.873997 573.11638 876.187923 572.839644 860.753109 562.890359 851.399375 544.822466 834.412998 560.661779 779.329779 607.814784 731.793167 654.967791 684.256557 710.960587 666.92329 729.02848 683.909666 747.096375 700.896043 731.257062 755.979264 684.104055 803.515874 666.535275 821.227584 647.033545 835.471793 627.799177 844.978029 615.466266 851.073346 610.543968 865.747883 616.804917 877.754526 623.065867 889.761171 638.13917 894.553248 650.472081 888.457933L650.472081 888.457933ZM318.562611 392.889308C271.409605 345.352698 255.570292 290.269476 273.638186 273.2831 291.706081 256.296723 347.698877 273.62999 394.851882 321.166601 442.004887 368.703213 457.844201 423.786432 439.776307 440.772809 421.708412 457.759185 365.715616 440.425918 318.562611 392.889308L318.562611 392.889308ZM282.533069 426.762174C346.351436 491.099723 430.605557 517.181636 474.56963 475.849188 518.533702 434.51674 494.699791 351.631285 430.881423 287.293737 367.063057 222.956186 282.808936 196.874274 238.844863 238.206722 194.88079 279.539168 218.714703 362.424623 282.533069 426.762174L282.533069 426.762174ZM435.158223 165.180952C435.158223 99.097287 463.068177 48.761905 488.185508 48.761905 513.302837 48.761905 541.212791 99.097287 541.212791 165.180952 541.212791 231.264619 513.302837 281.6 488.185508 281.6 463.068177 281.6 435.158223 231.264619 435.158223 165.180952L435.158223 165.180952ZM385.071267 165.180952C385.071267 254.620672 427.068254 330.361905 488.185508 330.361905 549.302761 330.361905 591.299748 254.620672 591.299748 165.180952 591.299748 75.741232 549.302761 0 488.185508 0 427.068254 0 385.071267 75.741232 385.071267 165.180952L385.071267 165.180952ZM344.858263 572.53843C297.705257 525.00182 281.865944 469.918598 299.933839 452.932222 318.001733 435.945845 373.994529 453.279113 421.147534 500.815725 468.30054 548.352335 484.139853 603.435554 466.071959 620.421933 448.004064 637.408309 392.011268 620.075042 344.858263 572.53843L344.858263 572.53843ZM308.828721 606.411296C372.647088 670.748847 456.90121 696.830758 500.865282 655.49831 544.829355 614.165862 520.995443 531.28041 457.177075 466.942859 393.358709 402.605308 309.104588 376.523396 265.140515 417.855844 221.176442 459.188292 245.010355 542.073745 308.828721 606.411296L308.828721 606.411296ZM344.858263 803.515874C297.705257 755.979264 281.865944 700.896043 299.933839 683.909666 318.001733 666.92329 373.994529 684.256557 421.147534 731.793167 468.30054 779.329779 484.139853 834.412998 466.071959 851.399375 448.004064 868.385751 392.011268 851.052484 344.858263 803.515874L344.858263 803.515874ZM308.828721 837.38874C372.647088 901.726289 456.90121 927.808203 500.865282 886.475755 544.829355 845.143307 520.995443 762.257852 457.177075 697.920303 393.358709 633.582752 309.104588 607.500841 265.140515 648.833289 221.176442 690.165734 245.010355 773.051189 308.828721 837.38874L308.828721 837.38874ZM526.376811 993.283714 526.376811 312.339334C526.376811 298.874108 515.164465 287.958383 501.333333 287.958383 487.502202 287.958383 476.289856 298.874108 476.289856 312.339334L476.289856 993.283714C476.289856 1006.748943 487.502202 1017.664668 501.333333 1017.664668 515.164465 1017.664668 526.376811 1006.748943 526.376811 993.283714L526.376811 993.283714Z" /></svg>
