<?xml version="1.0" standalone="no"?><!DOCTYPE svg PUBLIC "-//W3C//DTD SVG 1.1//EN" "http://www.w3.org/Graphics/SVG/1.1/DTD/svg11.dtd"><svg t="1563766139560" class="icon" viewBox="0 0 1024 1024" version="1.1" xmlns="http://www.w3.org/2000/svg" p-id="8309" xmlns:xlink="http://www.w3.org/1999/xlink" width="200" height="200"><defs><style type="text/css"></style></defs><path d="M723.456 225.28c-3.584 0-6.656 0.512-9.216 2.048-2.56 1.536-4.608 3.072-6.144 5.12s-3.584 4.608-5.12 7.68c-2.048 3.072-3.584 6.144-5.12 8.704l-43.008 71.168-48.128-75.264c-4.096-6.656-7.68-11.776-10.752-14.848-3.072-3.072-7.168-4.608-12.288-4.608s-9.216 1.536-12.288 4.608c-3.072 3.072-4.608 7.168-4.608 12.288 0 3.072 0.512 5.632 1.536 7.68 1.024 2.56 3.584 6.144 7.168 11.776l44.544 70.144h-18.944c-13.824 0-20.992 4.608-20.992 13.824 0 9.216 7.168 13.824 20.992 13.824h33.28v21.504h-33.28c-13.824 0-20.992 4.608-20.992 13.824 0 9.216 7.168 13.824 20.992 13.824h33.28v11.776c0 19.968 6.656 30.208 20.48 30.208 13.312 0 19.968-10.24 19.968-30.208v-11.776h33.792c13.824 0 20.992-4.608 20.992-13.824 0-9.216-7.168-13.824-20.992-13.824h-33.792v-21.504h33.792c13.824 0 20.992-4.608 20.992-13.824 0-9.216-7.168-13.824-20.992-13.824h-18.944l43.008-70.656c2.56-4.608 4.608-8.192 5.632-10.752 1.024-3.072 2.048-6.144 2.048-9.728 0-4.608-1.536-8.192-4.608-11.264-3.584-2.56-7.68-4.096-12.288-4.096" p-id="8310"></path><path d="M988.16 871.424H35.84c-14.336 0-25.6-11.264-25.6-25.6V138.24c0-14.336 11.264-25.6 25.6-25.6h952.32c14.336 0 25.6 11.264 25.6 25.6v707.584c0 14.336-11.264 25.6-25.6 25.6z m-926.72-51.2h901.12V163.84H61.44v656.384z" p-id="8311"></path><path d="M498.688 386.048H211.456c-14.336 0-25.6-11.264-25.6-25.6s11.264-25.6 25.6-25.6h287.232c14.336 0 25.6 11.264 25.6 25.6s-11.264 25.6-25.6 25.6zM817.664 553.472H211.456c-14.336 0-25.6-11.264-25.6-25.6s11.264-25.6 25.6-25.6h606.208c14.336 0 25.6 11.264 25.6 25.6s-11.264 25.6-25.6 25.6zM812.544 720.896H206.336c-14.336 0-25.6-11.264-25.6-25.6s11.264-25.6 25.6-25.6h606.208c14.336 0 25.6 11.264 25.6 25.6s-11.264 25.6-25.6 25.6z" p-id="8312"></path></svg>