<?xml version="1.0" standalone="no"?><!DOCTYPE svg PUBLIC "-//W3C//DTD SVG 1.1//EN" "http://www.w3.org/Graphics/SVG/1.1/DTD/svg11.dtd"><svg t="1558577403736" class="icon" style="" viewBox="0 0 1024 1024" version="1.1" xmlns="http://www.w3.org/2000/svg" p-id="12554" xmlns:xlink="http://www.w3.org/1999/xlink" width="200" height="200"><defs><style type="text/css"></style></defs><path d="M736.532 356.017H391.197c-8.665 0-15.697 7.699-15.697 17.183s7.032 17.182 15.697 17.182h345.335c8.664 0 15.696-7.698 15.696-17.182s-7.032-17.183-15.696-17.183zM272.403 373.2c0 9.485 6.151 17.182 13.746 17.182h41.24c7.594 0 13.745-7.698 13.745-17.182s-6.15-17.183-13.746-17.183H286.15c-7.595 0-13.746 7.698-13.746 17.183z m464.129 171.827H391.197c-8.665 0-15.697 7.699-15.697 17.183 0 9.485 7.032 17.182 15.697 17.182h345.335c8.664 0 15.696-7.698 15.696-17.182 0-9.484-7.032-17.183-15.696-17.183z m-409.144 0H286.15c-7.595 0-13.746 7.699-13.746 17.183 0 9.485 6.151 17.182 13.746 17.182h41.24c7.594 0 13.745-7.698 13.745-17.182 0-9.484-6.15-17.183-13.746-17.183z m409.144 189.011H391.197c-8.665 0-15.697 7.698-15.697 17.182 0 9.485 7.032 17.183 15.697 17.183h345.335c8.664 0 15.696-7.699 15.696-17.183 0-9.485-7.032-17.182-15.696-17.182z m-409.144 0H286.15c-7.595 0-13.746 7.698-13.746 17.182 0 9.485 6.151 17.183 13.746 17.183h41.24c7.594 0 13.745-7.699 13.745-17.183 0-9.485-6.15-17.182-13.746-17.182z m64.648-498.3h240.559c18.944 0 34.365-15.412 34.365-34.366V115.46c0-18.953-15.42-34.366-34.365-34.366h-240.56c-18.952 0-34.365 15.412-34.365 34.366v85.913c0.001 18.953 15.413 34.366 34.366 34.366z m0-120.28h240.559l0.016 85.914H392.036V115.46z m446.752-34.365H701.326v34.366h137.462c28.425 0 51.548 23.122 51.548 51.548v687.31c0 28.426-23.123 51.548-51.548 51.548H185.843c-28.426 0-51.548-23.122-51.548-51.548v-687.31c0-28.426 23.122-51.548 51.548-51.548h137.461V81.093H185.843c-47.37 0-85.914 38.544-85.914 85.914v687.31c0 47.37 38.544 85.914 85.914 85.914h652.945c47.37 0 85.913-38.544 85.913-85.914v-687.31c0-47.37-38.543-85.914-85.913-85.914z" p-id="12555"></path></svg>