<?xml version="1.0" standalone="no"?><!DOCTYPE svg PUBLIC "-//W3C//DTD SVG 1.1//EN" "http://www.w3.org/Graphics/SVG/1.1/DTD/svg11.dtd"><svg class="icon" width="64px" height="64.00px" viewBox="0 0 1024 1024" version="1.1" xmlns="http://www.w3.org/2000/svg"><path d="M511.249268 510.873074m-510.873074 0a510.873074 510.873074 0 1 0 1021.746148 0 510.873074 510.873074 0 1 0-1021.746148 0ZM632.957265 786.594277H330.941124c-16.528247 0-32.305209-6.010271-44.325752-18.030814-12.020543-12.020543-18.782098-27.046222-18.782098-44.325752l0.751284-72.874542c3.005136-13.523111 9.766691-24.79237 19.533382-31.553925 12.771827-9.766691 30.051357-9.766691 48.833456 1.502568l4.507703 2.253852 5.258988 1.502568c15.776963 7.512839 30.802641 6.761555 44.325752 1.502568 6.761555-3.005136 12.771827-6.761555 18.030814-12.020543 5.258988-5.258988 9.015407-11.269259 12.020543-18.030815 3.005136-6.761555 4.507704-13.523111 4.507704-21.787234 0-8.264123-1.502568-15.025679-4.507704-21.787234-3.005136-6.761555-6.761555-12.771827-12.020543-18.030814-5.258988-5.258988-11.269259-9.015407-18.030814-12.020543-13.523111-6.010271-28.548789-6.010271-44.325752 0.751284l-5.258988 2.253852c-5.258988 2.253852-10.517975 5.258988-15.025678 7.512839-6.761555 3.005136-13.523111 4.507704-19.533383 4.507704h-4.507703c-10.517975-0.751284-19.533382-6.761555-25.543654-15.776963-5.258988-7.512839-7.512839-16.528247-8.264123-30.051357v-65.361702c0-17.27953 6.761555-32.305209 18.782098-44.325752 12.020543-12.020543 27.797506-18.782098 44.325752-18.782099h57.097579c-3.75642-11.269259-6.010271-24.041086-6.010271-36.812912 0-16.528247 3.005136-32.305209 9.766691-46.579604 6.010271-14.274395 15.025679-27.046222 25.543653-37.564197s23.289802-18.782098 37.564197-25.543654c28.548789-12.771827 63.10785-12.771827 92.407924 0 14.274395 6.010271 27.046222 15.025679 37.564196 25.543654s18.782098 23.289802 25.543654 37.564197c6.010271 14.274395 9.766691 30.051357 9.766691 46.579604 0 12.771827-2.253852 24.79237-6.010271 36.812912h19.533382c17.27953 0 32.305209 6.761555 44.325752 18.782099 12.020543 12.020543 18.030814 27.797506 18.030814 44.325752v42.0719c26.294938-9.766691 57.097579-9.015407 83.392517 2.253852 14.274395 6.010271 26.294938 14.274395 36.812913 24.792369 10.517975 10.517975 18.782098 23.289802 24.792369 36.812913 6.010271 14.274395 9.015407 29.300073 9.015408 45.077036s-3.005136 31.553925-9.015408 45.82832c-6.010271 13.523111-14.274395 26.294938-24.792369 36.812913-10.517975 10.517975-23.289802 18.782098-36.812913 24.792369-26.294938 11.269259-57.097579 12.020543-83.392517 2.253852v36.812913c0 17.27953-6.010271 32.305209-18.030814 44.325752-13.523111 12.020543-29.300073 18.030814-45.82832 18.030814zM313.661594 660.378577v63.859134c0 4.507704 1.502568 8.264123 5.258987 12.020543 3.75642 3.75642 7.512839 5.258988 12.771827 5.258987h301.264857c5.258988 0 8.264123-1.502568 12.020543-5.258987 3.75642-3.75642 5.258988-6.761555 5.258988-12.020543V598.773294l37.564196 32.305209c6.010271 5.258988 13.523111 9.766691 21.787234 12.771827 15.776963 6.761555 35.310345 6.010271 51.838592-0.751284 9.015407-3.75642 16.528247-9.015407 22.538518-15.025678 6.761555-6.761555 12.020543-14.274395 15.776962-22.538518s5.258988-17.27953 5.258988-27.046222c0-9.766691-1.502568-18.782098-5.258988-27.046222-3.75642-9.015407-9.015407-16.528247-15.025678-22.538518-6.761555-6.761555-14.274395-11.269259-22.538518-15.025678-16.528247-6.761555-36.061629-7.512839-51.838592-0.751284-8.264123 3.005136-15.776963 7.512839-21.787234 12.771827l-37.564196 31.553925V426.729274c0-5.258988-1.502568-9.015407-5.258988-12.771827-3.75642-3.75642-6.761555-5.258988-12.020543-5.258988H525.523663l32.305209-37.564196c10.517975-12.771827 15.776963-27.046222 15.776962-44.325752 0-10.517975-2.253852-19.533382-6.010271-28.54879-3.75642-9.015407-9.015407-16.528247-15.776963-23.289802-6.761555-6.761555-14.274395-12.020543-23.289801-15.776962-17.27953-7.512839-38.315481-7.512839-55.595011 0-9.015407 3.75642-16.528247 9.015407-23.289802 15.776962-6.761555 6.761555-12.020543 14.274395-15.776963 23.289802-3.75642 9.015407-6.010271 18.030814-6.010271 28.54879 0 9.015407 1.502568 16.528247 4.507703 24.041085 3.005136 7.512839 6.761555 15.025679 12.020543 21.035951l29.300073 36.812912h-142.743947c-5.258988 0-9.015407 1.502568-12.020543 5.258988-3.75642 3.75642-5.258988 7.512839-5.258987 12.020543v63.10785c2.253852-1.502568 5.258988-2.253852 7.512839-3.75642 2.253852-0.751284 5.258988-2.253852 9.015407-3.756419 22.538518-10.517975 54.092443-10.517975 78.133529 0 12.020543 5.258988 23.289802 12.771827 32.305209 21.787234 9.015407 9.015407 16.528247 20.284666 21.787234 32.305209 5.258988 12.020543 8.264123 25.543654 8.264124 39.818048s-3.005136 27.797506-8.264124 39.818049c-5.258988 12.020543-12.771827 22.538518-21.787234 31.553925-9.015407 9.015407-20.284666 16.528247-32.305209 21.787234-24.79237 10.517975-53.341159 11.269259-80.38738-1.502568-3.75642-1.502568-9.015407-3.75642-14.274395-6.761555z" /></svg>
