<?xml version="1.0" standalone="no"?><!DOCTYPE svg PUBLIC "-//W3C//DTD SVG 1.1//EN" "http://www.w3.org/Graphics/SVG/1.1/DTD/svg11.dtd"><svg class="icon" width="64px" height="64.00px" viewBox="0 0 1024 1024" version="1.1" xmlns="http://www.w3.org/2000/svg"><path d="M504.128 943.264l-1.968 1.968c-84.688-88.624-141.792-179.2-173.296-273.728h126.032c3.936-13.776 7.872-27.568 13.776-39.376h-151.632c-9.84-43.328-15.744-88.624-15.744-133.92 1.968-45.28 7.872-86.64 17.712-128h362.352c5.904 25.6 11.808 51.2 13.776 76.8 11.824-1.968 25.6-3.936 39.392-3.936-1.968-25.6-7.888-49.232-13.792-72.864h210.72c11.808 41.36 19.68 84.688 19.68 129.984v9.84c13.792 9.84 25.6 23.632 37.424 35.44 1.968-15.744 1.968-29.536 1.968-45.28 0-55.152-9.856-108.32-25.6-157.552v-1.968C901.904 149.664 718.768 9.84 502.16 9.84c-216.624 0-399.76 139.824-466.72 332.8v1.968c-15.744 49.232-25.6 102.4-25.6 157.552 0 55.136 9.856 108.304 25.6 157.536v1.968c66.96 192.976 250.096 332.8 466.72 332.8 15.744 0 31.504 0 45.28-1.968a516.32 516.32 0 0 1-43.312-49.232zM921.6 332.8H712.864c-41.36-129.968-118.16-230.4-161.472-279.632 167.376 17.728 309.168 128 370.208 279.632z m-250.08 0H332.8c47.264-139.808 135.872-240.24 169.36-273.728 33.472 33.488 122.08 133.92 169.344 273.728zM452.912 51.2c-45.296 51.2-122.096 149.664-161.488 279.632H82.72C143.76 181.168 285.536 70.88 452.928 51.2zM49.232 502.16c0-45.296 5.92-88.624 19.68-129.968h210.72c-9.84 39.376-15.76 82.704-17.728 126.016-1.968 45.296 3.936 90.592 13.792 135.888H68.928c-13.792-43.328-19.696-86.656-19.696-131.936z m33.472 169.344h204.8C317.04 768 372.192 862.528 454.896 951.136c-169.36-15.744-311.136-128-372.192-279.632z"  /><path d="M758.16 502.16c-141.792 0-256 114.208-256 256 0 141.776 114.208 256 256 256 141.776 0 256-114.224 256-256 0-141.792-114.224-256-256-256z m0 472.608a216 216 0 0 1-216.624-216.608 216 216 0 0 1 216.624-216.624 216 216 0 0 1 216.608 216.624 216 216 0 0 1-216.608 216.608z"  /><path d="M917.664 754.208a15.04 15.04 0 0 0-3.936-9.84V742.4L807.392 640a19.04 19.04 0 0 0-27.584 0 19.04 19.04 0 0 0 0 27.568l68.928 68.928H602.592c-11.824 0-19.696 7.872-19.696 19.68 0 11.824 7.872 19.696 19.68 19.696H850.72l-70.88 70.896c-3.952 3.936-5.92 7.872-5.92 13.792 0 5.904 1.968 9.84 5.92 13.776 3.936 3.936 7.872 5.92 13.776 5.92 5.92 0 9.84-1.984 13.792-5.92l102.4-104.368c3.936-3.936 5.904-7.872 5.904-11.808 1.968 0 1.968-1.968 1.968-3.952z"  /></svg>
