<?xml version="1.0" standalone="no"?><!DOCTYPE svg PUBLIC "-//W3C//DTD SVG 1.1//EN" "http://www.w3.org/Graphics/SVG/1.1/DTD/svg11.dtd"><svg t="1541647646189" class="icon" style="" viewBox="0 0 1024 1024" version="1.1" xmlns="http://www.w3.org/2000/svg" p-id="4937" xmlns:xlink="http://www.w3.org/1999/xlink" width="64" height="64"><defs><style type="text/css"></style></defs><path d="M77.89160855 907.05797391C67.29088967 918.02423285 67.58721984 935.50772434 78.55348009 946.10844193 89.51974032 956.70916081 107.00323052 956.41282935 117.6039481 945.44656911L918.49162591 116.94207527C929.09234349 105.97581634 928.79601203 88.49232615 917.82975308 77.89160855 906.86349413 67.29088967 889.38000265 67.58721984 878.77928506 78.55348009L77.89160855 907.05797391Z" p-id="4938"></path><path d="M878.77928506 945.44656911C889.38000265 956.41282935 906.86349413 956.70916081 917.82975308 946.10844193 928.79601203 935.50772434 929.09234349 918.02423285 918.49162591 907.05797391L117.6039481 78.55348009C107.00323052 67.58721984 89.51974032 67.29088967 78.55348009 77.89160855 67.58721984 88.49232615 67.29088967 105.97581634 77.89160855 116.94207527L878.77928506 945.44656911Z" p-id="4939"></path></svg>