<?xml version="1.0" standalone="no"?><!DOCTYPE svg PUBLIC "-//W3C//DTD SVG 1.1//EN" "http://www.w3.org/Graphics/SVG/1.1/DTD/svg11.dtd"><svg t="1541583638025" class="icon" style="" viewBox="0 0 1024 1024" version="1.1" xmlns="http://www.w3.org/2000/svg" p-id="6041" xmlns:xlink="http://www.w3.org/1999/xlink" width="64" height="64"><defs><style type="text/css"></style></defs><path d="M875.53024 511.70986667V861.05884445c0 48.20878222-39.08039111 87.29031111-87.29031111 87.2903111H162.31537778c-48.20764445 0-87.29031111-39.08152889-87.29031111-87.2903111V235.13543111c0-48.20878222 39.08266667-87.29031111 87.29031111-87.29031111h349.34897777v-72.77226667h-365.4087111c-79.53066667 0-144.00170667 64.47104-144.00170667 144.00170667v658.04515555c0 79.53066667 64.47217778 144.00170667 144.00284444 144.00170667h658.04515556c79.53066667 0 144.00170667-64.47104 144.00170667-144.00170667v-365.4087111h-72.77340445zM829.23975111-11.70773333L1035.07057778 194.12309333l-51.45713778 51.45827556L777.78147555 39.74940445l51.45827556-51.45713778zM726.3232 91.20881778L932.15630222 297.03964445l-51.45713777 51.45827555L674.86606222 142.66595555l51.45827556-51.45713777z" fill="" p-id="6042"></path><path d="M674.86606222 142.66823111l51.45827556 51.45827556-308.74737778 308.74624-51.45713778-51.45827556 308.74737778-308.74737778zM829.24088889 297.04078222l51.45827556 51.45827556-308.74737778 308.74624-51.45713778-51.45827556 308.74624-308.74624z" fill="" p-id="6043"></path><path d="M366.11982222 584.48327111h205.83310223v72.77226667H366.11982222v-72.77226667z" fill="" p-id="6044"></path><path d="M366.11982222 451.42243555h72.77226667v205.83424h-72.77226667V451.42243555z" fill="" p-id="6045"></path></svg>