<?xml version="1.0" standalone="no"?><!DOCTYPE svg PUBLIC "-//W3C//DTD SVG 1.1//EN" "http://www.w3.org/Graphics/SVG/1.1/DTD/svg11.dtd"><svg t="1541583615591" class="icon" style="" viewBox="0 0 1024 1024" version="1.1" xmlns="http://www.w3.org/2000/svg" p-id="5774" xmlns:xlink="http://www.w3.org/1999/xlink" width="64" height="64"><defs><style type="text/css"></style></defs><path d="M874.97816532 285.40467792a103.56306132 103.56306132 0 0 0 0-146.43816888l-14.98212306-14.98212306a103.56306132 103.56306132 0 0 0-146.43817009 0l-526.10035318 526.10035317-39.14683733 160.52274609a34.52102004 34.52102004 0 0 0 42.11564483 41.63235081l158.17531695-40.5967206 526.3074797-526.23843753z m33.8305995-210.2330145l14.91308088 14.91308089a172.60510261 172.60510261 0 0 1 0 244.13265738L384.08925273 873.84999466l-176.54049936 45.29157886a103.56306132 103.56306132 0 0 1-126.34693571-124.89705244l43.70361245-179.23313815 539.83971951-539.83971951a172.60510261 172.60510261 0 0 1 244.0636152 0zM134.84748404 1021.04762626a34.52102004 34.52102004 0 1 1 0-69.04204007h828.50449301a34.52102004 34.52102004 0 0 1 0 69.04204007h-828.50449301z" fill="" p-id="5775"></path><path d="M639.0615099 187.15785322l48.32942976-49.29601657 188.82998241 185.03267002-48.32942975 49.22697561zM142.64923415 657.95553265l50.12452268-47.50092485 182.06386253 192.00591644-50.05548052 47.50092486z" fill="" p-id="5776"></path></svg>