<?xml version="1.0" standalone="no"?><!DOCTYPE svg PUBLIC "-//W3C//DTD SVG 1.1//EN" "http://www.w3.org/Graphics/SVG/1.1/DTD/svg11.dtd"><svg class="icon" width="64px" height="64.00px" viewBox="0 0 1024 1024" version="1.1" xmlns="http://www.w3.org/2000/svg"><path d="M905.185809 178.844158C898.576738 172.685485 891.19337 165.824412 883.21687 158.436127 860.422682 137.322863 837.434925 116.207791 815.697647 96.487895 813.243072 94.261877 813.243072 94.261877 810.786411 92.037081 781.783552 65.781062 757.590948 44.376502 739.713617 29.293612 729.254178 20.469111 721.020606 13.860686 714.970549 9.501727 710.955023 6.608611 707.690543 4.524745 704.47155 2.998714 700.417679 1.07689 696.638044-0.094029 691.307277 0.005928 677.045677 0.273349 665.6 11.769337 665.6 26.182727L665.6 77.352844 665.6 128.522961 665.6 230.863194 665.6 256.448252 691.2 256.448252 896 256.448252 870.4 230.863194 870.4 998.414942 896 972.829884 230.381436 972.829884C187.90385 972.829884 153.6 938.623723 153.6 896.20663L153.6 26.182727 128 51.767786 588.8 51.767786C602.93849 51.767786 614.4 40.312965 614.4 26.182727 614.4 12.05249 602.93849 0.597669 588.8 0.597669L128 0.597669 102.4 0.597669 102.4 26.182727 102.4 896.20663C102.4 966.91021 159.652833 1024 230.381436 1024L896 1024 921.6 1024 921.6 998.414942 921.6 230.863194 921.6 205.278135 896 205.278135 691.2 205.278135 716.8 230.863194 716.8 128.522961 716.8 77.352844 716.8 26.182727C716.8 39.813762 705.748075 50.91427 692.267725 51.167041 687.705707 51.252584 685.069822 50.435995 682.52845 49.231204 682.259458 49.103682 683.344977 49.796618 685.029451 51.010252 689.779394 54.432502 697.145822 60.34494 706.686383 68.394196 724.009052 83.009121 747.816448 104.072869 776.413589 129.961594 778.850014 132.168064 778.850014 132.168064 781.285216 134.376514 802.876774 153.964212 825.739479 174.96442 848.413564 195.966437 856.350957 203.3185 863.697005 210.144893 870.269888 216.269843 874.209847 219.941299 877.019309 222.565641 878.499674 223.951409 888.81866 233.610931 905.019017 233.081212 914.684179 222.768247 924.349344 212.455283 923.819315 196.264383 913.500326 186.604861 911.981323 185.182945 909.155025 182.542876 905.185809 178.844158ZM102.4 461.128719 0 461.128719 0 896.074709 512 896.074709 1024 896.074709 1024 461.128719 153.6 461.128719 153.6 460.531049 102.4 460.531049 102.4 461.128719ZM349.4 673.2 229.8 673.2 229.8 762.8 369.6 762.8 369.6 803.2 179.2 803.2 179.2 512 368.2 512 368.2 552.8 229.8 552.8 229.8 633.2 349.4 633.2 349.4 673.2ZM511 617.2 572.2 512 630.6 512 542.6 656.4 632.6 803.2 573.6 803.2 511 696.4 448.2 803.2 389.4 803.2 479.6 656.4 391.4 512 449.8 512 511 617.2ZM720.6 762.8 852.8 762.8 852.8 803.2 670 803.2 670 512 720.6 512 720.6 762.8Z" /></svg>
