<?xml version="1.0" standalone="no"?><!DOCTYPE svg PUBLIC "-//W3C//DTD SVG 1.1//EN" "http://www.w3.org/Graphics/SVG/1.1/DTD/svg11.dtd"><svg t="1608620629067" class="icon" viewBox="0 0 1280 1024" version="1.1" xmlns="http://www.w3.org/2000/svg" p-id="1158" xmlns:xlink="http://www.w3.org/1999/xlink" width="250" height="200"><defs><style type="text/css"></style></defs><path d="M883.064178 701.020359C855.757227 723.488768 833.577244 713.055844 833.523911 677.813618L833.320676 543.233707C833.320676 543.233707 800.68864 543.866169 782.222791 544.82725 726.196338 547.743204 669.00096 554.496924 612.979911 565.985081 463.113387 596.717966 344.107947 656.258162 272.680533 749.700523 228.121884 807.992732 192 781.035947 192 722.710044 192 493.003435 306.204302 341.401685 497.794844 258.529152 620.735004 205.351381 833.62048 188.056619 833.62048 188.056619L833.62048 35.083008C833.62048-0.205042 855.732053-10.618055 883.064178 11.871019L1252.399218 315.763015C1279.706169 338.231424 1279.731342 374.639289 1252.399218 397.128363L883.064178 701.020359 883.064178 701.020359ZM878.713173 276.470684C760.934827 276.937628 642.912711 293.099477 533.650204 340.360974 373.032533 409.836132 295.191609 603.256377 295.798044 602.80374 376.2048 542.792633 478.01216 502.531413 594.822827 478.577209 655.595662 466.114631 717.22112 458.837803 777.523911 455.699271 818.418916 453.570844 872.354987 455.3887 872.354987 455.3887 900.572444 455.98774 923.268978 479.441493 923.048818 507.787221L922.702649 552.363733 1160.589653 356.101959 922.764658 160.417536 923.145956 225.131207C923.312356 253.387264 900.556089 276.384085 878.713173 276.470684L878.713173 276.470684ZM839.111111 917.310507 99.555556 917.407957 99.555556 419.532729 206.222222 419.532729C233.713778 419.532729 256 397.24645 256 369.754951 256 342.263438 233.713778 319.977173 206.222222 319.977173L0 319.977173 0 1016.866062 938.666667 1016.866062 938.666667 824.866062C938.666667 797.374549 916.380444 775.088284 888.888889 775.088284 861.397333 775.088284 839.111111 797.374549 839.111111 824.866062L839.111111 917.310507 839.111111 917.310507Z" p-id="1159"></path></svg>