<?xml version="1.0" standalone="no"?><!DOCTYPE svg PUBLIC "-//W3C//DTD SVG 1.1//EN" "http://www.w3.org/Graphics/SVG/1.1/DTD/svg11.dtd"><svg class="icon" width="64px" height="63.94px" viewBox="0 0 1025 1024" version="1.1" xmlns="http://www.w3.org/2000/svg"><path d="M588.1088 490.3424c12.81024 109.23008 105.63072 193.9968 218.30144 193.9968s205.4912-84.76672 218.30144-193.9968c0 0-0.35328 0-0.3584 0 0.52224-4.92032-0.37376-10.04032-2.87744-14.73024l-189.68064-355.2256c-1.65376-6.85568-6.02112-13.02528-12.73344-16.60928-2.29888-1.2288-4.70528-1.9456-7.13728-2.42176-0.2048-0.04608-0.41472-0.0768-0.61952-0.11776-1.17248-0.19968-2.33472-0.3328-3.5072-0.36864-0.3584-0.01536-0.6912-0.11264-1.0496-0.11264l-269.2864 0 0-38.63552c0-17.3312-11.46368-31.38048-25.6-31.38048s-25.6 14.04928-25.6 31.38048l0 38.63552L216.97024 100.75648c-0.35328 0-0.68096 0.09216-1.02912 0.10752-0.31232 0.0256-0.62464 0.06144-0.93696 0.09728-5.10464 0.43008-9.72288 2.46784-13.4656 5.67296-0.04096 0.03584-0.0768 0.06656-0.11776 0.1024-0.9984 0.86528-1.92512 1.792-2.78016 2.816-0.50176 0.57344-0.95744 1.16736-1.40288 1.77664-0.31232 0.45056-0.61952 0.90112-0.90624 1.37216-1.5104 2.3808-2.6112 4.95616-3.27168 7.67488L3.3792 475.61728c-2.24256 4.20352-3.09248 8.74496-2.8928 13.184C0.4608 489.3184 0.3584 489.81504 0.3584 490.3424l-0.35328 0c12.81024 109.23008 105.63072 193.9968 218.30144 193.9968s205.4912-84.76672 218.30144-193.9968c0 0-0.35328 0-0.3584 0 0.52224-4.92032-0.37376-10.04032-2.87744-14.73024L260.54656 151.95648l225.7152 0 0 790.45632L216.97024 942.4128c-13.51168 0-24.46848 11.46368-24.46848 25.6s10.9568 25.6 24.46848 25.6l589.78304 0c13.51168 0 24.46848-11.46368 24.46848-25.6 0-14.14144-10.9568-25.6-24.4736-25.6l-269.2864 0L537.46176 151.95648l226.85184 0-172.8256 323.65568c-2.24256 4.20352-3.0976 8.74496-2.89792 13.184-0.0256 0.52224-0.128 1.01888-0.128 1.54624L588.1088 490.3424zM218.30656 633.1392c-75.19744 0-138.85952-49.22368-160.62464-117.1968l265.5488 0c11.60704 0 21.02272-11.46368 21.02272-25.6 0-14.14144-9.41056-25.6-21.02272-25.6l-256 0 151.1424-283.0592 166.17472 311.1936C371.04128 572.49792 301.7728 633.1392 218.30656 633.1392zM806.41024 633.1392c-75.19744 0-138.85952-49.22368-160.62464-117.1968l267.8016 0c11.68896 0 21.16608-11.46368 21.16608-25.6 0-14.14144-9.47712-25.6-21.16608-25.6l-258.25792 0 151.14752-283.0592 166.1696 311.19872C959.14496 572.49792 889.87648 633.1392 806.41024 633.1392z" /></svg>
