<?xml version="1.0" standalone="no"?><!DOCTYPE svg PUBLIC "-//W3C//DTD SVG 1.1//EN" "http://www.w3.org/Graphics/SVG/1.1/DTD/svg11.dtd"><svg class="icon" width="64px" height="64.00px" viewBox="0 0 1024 1024" version="1.1" xmlns="http://www.w3.org/2000/svg"><path d="M1013.342765 771.306451 1017.427407 514.478016 1017.739181 494.874829 998.944783 489.824625 911.908109 466.437188 930.393933 490.688288 930.393933 121.707091 930.393933 96.872116 905.756591 96.610444 551.467575 92.847571 531.226001 92.632587 526.884847 112.56181 455.019706 442.477924 479.340079 422.762291 378.060235 422.762291 360.478925 422.762291 354.595908 439.462084 213.530519 839.896508 201.730419 873.392791 236.994844 873.392796 404.799686 873.392813C418.551407 873.392815 429.699383 862.156041 429.699383 848.294778 429.699386 834.433513 418.551413 823.196736 404.799691 823.196736L236.994848 823.196717 260.459174 856.693005 401.524563 456.258579 378.060235 472.95837 479.340079 472.95837 499.365828 472.95837 503.660454 453.242737 575.525598 123.326624 550.942869 143.040863 905.231885 146.803737 880.594541 121.707091 880.594541 490.688288 880.594541 509.9721 899.080365 514.939386 986.117039 538.326825 967.634413 513.673434 963.549771 770.501869C963.329346 784.361353 974.297201 795.776796 988.047155 795.998974 1001.797111 796.221154 1013.122342 785.165935 1013.342765 771.306451L1013.342765 771.306451ZM488.656535 938.666667C550.539285 938.666667 600.705167 888.10118 600.705167 825.725491 600.705167 763.349801 550.539285 712.784314 488.656535 712.784314 426.773783 712.784314 376.607902 763.349801 376.607902 825.725491 376.607902 888.10118 426.773783 938.666667 488.656535 938.666667L488.656535 938.666667ZM488.656535 888.470588C454.277229 888.470588 426.407294 860.378652 426.407294 825.725491 426.407294 791.072329 454.277229 762.980393 488.656535 762.980393 523.03584 762.980393 550.905775 791.072329 550.905775 825.725491 550.905775 860.378652 523.03584 888.470588 488.656535 888.470588L488.656535 888.470588ZM787.452887 938.666667C849.335637 938.666667 899.501519 888.10118 899.501519 825.725491 899.501519 763.349801 849.335637 712.784314 787.452887 712.784314 725.570138 712.784314 675.404256 763.349801 675.404256 825.725491 675.404256 888.10118 725.570138 938.666667 787.452887 938.666667L787.452887 938.666667ZM787.452887 888.470588C753.073581 888.470588 725.203648 860.378652 725.203648 825.725491 725.203648 791.072329 753.073581 762.980393 787.452887 762.980393 821.832194 762.980393 849.702127 791.072329 849.702127 825.725491 849.702127 860.378652 821.832194 888.470588 787.452887 888.470588L787.452887 888.470588ZM363.387354 108.04366 107.605789 817.761867 135.181 801.588051 30.730849 783.695345C17.173521 781.372924 4.315319 790.568162 2.011251 804.233483-0.292817 817.898803 8.829753 830.85943 22.387081 833.181852L126.837231 851.074558 147.318927 854.583149 154.412442 834.900745 410.194007 125.182537C414.889376 112.154278 408.217698 97.756119 395.292397 93.023349 382.367098 88.290579 368.082722 95.015401 363.387354 108.04366L363.387354 108.04366ZM584.132527 467.052237 824.399761 467.052237 847.616186 467.052237 846.627697 443.6721 836.906871 213.750942 835.987266 192 814.390445 192.2823 626.06217 194.744013 607.834276 194.982276 604.481973 213.043549 562.263838 440.502993 557.336105 467.052237 584.132527 467.052237 584.132527 467.052237ZM584.132527 422.201572 606.001216 448.750816 648.219349 221.29137 626.639153 239.590906 814.967428 237.129194 792.450999 215.660553 802.171825 445.581709 824.399761 422.201572 584.132527 422.201572 584.132527 422.201572ZM282.679221 692.068597 189.300603 664.548501 175.325083 712.727409 268.703701 740.247505 282.679221 692.068597 282.679221 692.068597ZM591.36064 863.372548 714.137312 863.372548 714.137312 813.176471 591.36064 813.176471 591.36064 863.372548 591.36064 863.372548Z" /></svg>
