<?xml version="1.0" standalone="no"?><!DOCTYPE svg PUBLIC "-//W3C//DTD SVG 1.1//EN" "http://www.w3.org/Graphics/SVG/1.1/DTD/svg11.dtd"><svg t="1562061969952" class="icon" viewBox="0 0 1024 1024" version="1.1" xmlns="http://www.w3.org/2000/svg" p-id="5279" xmlns:xlink="http://www.w3.org/1999/xlink" width="200" height="200"><defs><style type="text/css"></style></defs><path d="M545.9968 87.21066667c-14.9504-7.03146667-32.59733333-4.7104-45.29493333 5.8368l-244.8384 203.776-195.31093333-0.78506667c-11.22986667 0-22.05013333 4.43733333-30.0032 12.3904-8.02133333 7.95306667-12.56106667 18.77333333-12.56106667 30.1056l-0.88746667 340.54826667c0 11.33226667 4.43733333 22.18666667 12.42453334 30.17386666 7.95306667 8.05546667 18.80746667 12.52693333 30.13973333 12.52693334h197.46133333l243.6096 203.02506666c7.7824 6.48533333 17.5104 9.8304 27.2384 9.8304 6.144 0 12.288-1.3312 18.05653334-4.02773333 14.9504-6.99733333 24.50773333-22.016 24.50773333-38.53653333v-766.32746667c0-16.4864-9.55733333-31.50506667-24.54186667-38.53653333v0zM711.0656 300.06613333c-20.992-9.9328-45.94346667-0.88746667-56.14933333 20.00213334-10.17173333 20.95786667-1.36533333 46.31893333 19.456 56.79786666 2.69653333 1.39946667 66.4576 34.54293333 66.4576 128.9216 0 100.82986667-59.63093333 134.2464-61.61066667 135.33866667-21.02613333 10.51306667-29.55946667 36.11306667-19.0464 57.1392 7.50933333 14.9504 22.49386667 23.552 38.16106667 23.552 6.38293333 0 12.9024-1.4336 18.97813333-4.47146667 4.43733333-2.2528 108.6464-56.18346667 108.6464-211.5584 0-149.9136-110.21653333-203.50293333-114.8928-205.7216v0zM843.60533334 175.03573333c-19.62666667-12.5952-45.6704-6.8608-58.50453334 12.73173334-12.76586667 19.59253333-7.168 45.94346667 12.35626667 58.84586666 4.608 3.03786667 113.664 77.34613333 113.664 262.31466667 0 185.37813333-104.61866667 259.75466667-108.78293333 262.58773333-19.59253333 13.07306667-24.84906667 39.45813333-11.81013334 59.05066667 8.192 12.288 21.7088 18.944 35.46453334 18.944 8.0896 0 16.31573333-2.3552 23.58613333-7.168 5.97333333-3.95946667 146.67093333-100.42026667 146.67093333-333.44853333 0-233.472-146.39786667-329.86453333-152.64426666-333.85813334v0zM843.60533334 175.03573333z" p-id="5280"></path></svg>