<?xml version="1.0" standalone="no"?><!DOCTYPE svg PUBLIC "-//W3C//DTD SVG 1.1//EN" "http://www.w3.org/Graphics/SVG/1.1/DTD/svg11.dtd"><svg t="1548999805485" class="icon" style="" viewBox="0 0 1024 1024" version="1.1" xmlns="http://www.w3.org/2000/svg" p-id="1339" xmlns:xlink="http://www.w3.org/1999/xlink" width="200" height="200"><defs><style type="text/css"></style></defs><path d="M667.84210508 590.15789492l-2.3684212-0.94736865-16.57894745-7.1052627-18.94736778-7.10526357-15.15789492-4.73684239-23.68421016-6.15789404-8.52631611-1.42105342h-1.89473729l-14.21052629-2.36842032h-2.36842031l-12.31578984-1.4210534-14.21052627-0.94736778a382.73684239 382.73684239 0 0 0-52.57894746 0h-13.26315762l-16.10526357 2.36842118h-1.42105254l-10.89473642 1.89473644-11.84210597 2.36842119-22.7368415 5.68421015-17.05263221 5.21052627-3.78947374 1.42105255c-11.36842119 4.26315762-22.73684238 8.52631612-34.1052627 13.73684238l-2.84210508 1.42105254A375.15789492 375.15789492 0 0 0 138.26315762 929.31578983c0 3.31578983 0 6.63157881 0.47368476 9.94736779l0.94736779 22.73684238h744.63157966l0.94736778-22.26315761c0-3.31578983 0.47368388-6.63157881 0.47368477-9.94736866a374.68421017 374.68421017 0 0 0-217.8947373-339.63157881zM174.73684239 925.52631612a338.21052627 338.21052627 0 0 1 193.26315761-300.78947373l3.78947373-1.42105256h0.47368388c9-4.26315762 18.47368388-8.05263135 27.94736866-11.36842118l2.84210508-0.94736865 15.6315788-4.73684238 20.3684212-5.21052627 10.8947373-2.3684212 8.52631523-1.42105253h1.42105255l15.63157969-2.36842119 11.84210507-0.94736778a322.10526357 322.10526357 0 0 1 48.78947373 0l11.84210508 0.94736778 9 1.4210534h4.26315761l13.26315851 2.36842032h1.89473641l7.10526359 1.42105342 21.31578896 5.68421016 13.73684238 4.26315762 17.05263135 6.15789492 15.6315788 6.63157881h0.94736866a338.21052627 338.21052627 0 0 1 197.05263134 302.21052627H174.73684239z m246.78947373-415.89473731l8.52631523 3.31578984 6.15789492 2.3684212 7.10526358 2.36842032a231.63157881 231.63157881 0 0 0 67.7368415 10.4210534h1.8947373l23.68421016-1.4210534 7.57894746-0.94736778 5.68421016-0.94736866 9.94736865-1.42105254 6.6315788-1.89473731 6.15789493-1.42105253 9-2.36842118 5.68421104-1.89473644 5.21052627-1.8947373 10.89473642-4.26315762 4.26315763-1.89473642 1.4210534-0.94736866 14.68421016-7.10526356 3.31578984-1.89473644 16.5789466-9.94736865 8.5263161-6.15789491 9.4736839-7.1052627a231.15789492 231.15789492 0 0 0 84.78947371-177.63157882v-1.8947373a233.05263135 233.05263135 0 0 0-465.15789403-14.68421016v2.84210508c-0.47368388 3.78947373-0.47368388 7.57894747-0.47368477 11.84210508a232.57894746 232.57894746 0 0 0 142.10526357 214.57894746zM316.36842119 286.05263135v-3.31578897A196.57894747 196.57894747 0 0 1 512 98.47368388c108.47368388 0 196.57894747 88.10526357 196.57894747 194.68421104v1.89473643a196.57894747 196.57894747 0 0 1-71.52631612 151.10526357l-8.52631523 6.63157881-6.15789493 4.73684239-13.73684238 8.52631523-2.84210508 1.42105253-12.31578985 5.68421104-4.73684149 2.3684212-8.52631612 3.31578896-6.15789492 2.36842119-3.31578896 1.42105254-6.63157882 1.89473731-7.10526357 1.89473641-4.73684238 0.94736866-7.57894747 0.94736866-7.10526268 0.94736776-5.21052628 0.94736866-18.47368476 0.94736865h-1.89473643a195.63157881 195.63157881 0 0 1-58.26315761-9l-4.73684239-1.89473731-6.63157881-2.36842118-6.15789492-2.36842031a196.10526357 196.10526357 0 0 1-120.31578984-180.47368477c0-3.31578983 0.47368388-6.15789492 0.47368476-9z m0 0" p-id="1340"></path></svg>