<?xml version="1.0" standalone="no"?><!DOCTYPE svg PUBLIC "-//W3C//DTD SVG 1.1//EN" "http://www.w3.org/Graphics/SVG/1.1/DTD/svg11.dtd"><svg t="1563765803117" class="icon" viewBox="0 0 1024 1024" version="1.1" xmlns="http://www.w3.org/2000/svg" p-id="6455" xmlns:xlink="http://www.w3.org/1999/xlink" width="200" height="200"><defs><style type="text/css"></style></defs><path d="M549.155225 437.609733l0 150.371776c0 40.818661 33.20117 74.02904 74.02904 74.02904l332.321758 0L955.506023 363.580692 623.184265 363.580692C582.356394 363.580692 549.155225 396.790048 549.155225 437.609733zM743.355205 424.885943c48.472991 0 87.909166 39.436174 87.909166 87.909166s-39.436174 87.909166-87.909166 87.909166-87.909166-39.436174-87.909166-87.909166S694.882214 424.885943 743.355205 424.885943z" p-id="6456"></path><path d="M743.355205 563.690266c28.068266 0 50.895157-22.826891 50.895157-50.895157S771.423471 461.899952 743.355205 461.899952s-50.895157 22.826891-50.895157 50.895157S715.286939 563.690266 743.355205 563.690266z" p-id="6457"></path><path d="M623.184265 699.024557c-61.232596 0-111.044072-49.810453-111.044072-111.044072L512.140193 437.609733c0-61.232596 49.810453-111.044072 111.044072-111.044072l332.321758 0L955.506023 253.69091c0-101.790314-83.282798-185.073112-185.073112-185.073112L252.230652 68.617797c-101.790314 0-185.073112 83.282798-185.073112 185.073112l0 518.203282c0 101.790314 83.282798 185.073112 185.073112 185.073112l518.203282 0c101.790314 0 185.073112-83.282798 185.073112-185.073112l0-72.870658L623.184265 699.023534z" p-id="6458"></path></svg>