<?xml version="1.0" standalone="no"?><!DOCTYPE svg PUBLIC "-//W3C//DTD SVG 1.1//EN" "http://www.w3.org/Graphics/SVG/1.1/DTD/svg11.dtd"><svg class="icon" width="64px" height="64.00px" viewBox="0 0 1024 1024" version="1.1" xmlns="http://www.w3.org/2000/svg"><path d="M335.282306 183.504536C399.587328 182.548893 442.778899 199.117283 470.183494 226.629346 479.127332 235.60826 485.691302 245.142637 490.241971 254.557311 492.795622 259.840447 494.049041 263.561299 494.358795 264.925906L493.723712 259.259077 493.723706 699.099804C493.723706 696.981894 495.816045 692.079345 503.591595 688.635633 511.039185 685.337167 515.68422 686.834726 517.176538 688.093387L500.671543 707.66237 521.297207 692.498532C514.140179 682.763631 499.631258 670.285491 476.134074 658.64086 439.577969 640.524544 390.86048 629.894921 328.491925 629.894918 265.860796 629.894918 219.424582 640.28182 186.827162 658.258419 164.977332 670.308013 152.538132 683.718827 147.220271 694.69113L170.257196 705.856258 151.035786 688.947757C152.884078 686.846639 158.307299 684.196634 167.849005 687.949566 177.092077 691.585039 179.2 696.799883 179.2 699.335548L179.2 398.950257 179.2 259.259077 175.817447 271.976979C177.078908 269.773279 180.088681 265.192189 184.828724 259.034371 192.95423 248.478476 202.792594 237.872508 214.297641 227.992039 247.526453 199.455319 287.381649 182.790944 334.514421 183.504429L335.282306 183.504536ZM335.289387 132.310295C274.661039 131.392517 223.081402 152.95915 180.940156 189.149816 156.32698 210.287473 139.975514 231.529763 131.382553 246.541175L128 252.450301 128 259.259077 128 398.950257 128 699.335548C128 736.73895 164.542545 751.111817 189.478606 722.764759L191.776657 720.152358 193.294121 717.021387C194.07832 715.403356 199.156367 709.928666 211.552092 703.092757 236.030601 689.593519 274.024879 681.094918 328.491925 681.094918 383.221547 681.094921 424.163878 690.02809 453.399258 704.516431 469.376966 712.434594 477.614626 719.519247 480.045882 722.82621L481.844905 725.27322 484.166551 727.231356C511.279708 750.0993 544.923706 735.198707 544.923706 699.099804L544.923712 259.259078 544.288627 253.592249C540.427211 236.580977 529.175531 213.302876 506.45814 190.496398 468.987716 152.87903 412.352271 131.153539 334.521502 132.310188L335.289387 132.310295ZM0 389.973306 0 868.143132C0 904.875637 34.793167 919.400433 61.4635 894.751492L63.46242 892.684141C65.301149 890.555164 69.655573 886.137687 76.498228 880.179637 88.306297 869.898093 102.566352 859.53706 119.251411 849.825615 167.295691 821.861709 224.90855 805.049818 292.337329 805.049818 358.378978 805.04982 409.459345 824.330434 448.125308 856.35226 461.506042 867.433726 472.380655 879.265242 480.912593 891.002999 485.832384 897.771373 488.762874 902.741986 489.872527 905.022522 496.058545 917.735902 511.379537 923.027375 524.092917 916.841355 536.806298 910.655337 542.097771 895.334345 535.91175 882.620964 527.471002 865.273707 509.777717 840.932282 480.782336 816.9193 433.134118 777.458677 370.586889 753.84982 292.337329 753.849818 215.474895 753.849815 149.074727 773.225916 93.495781 805.575332 59.761154 825.210385 36.872315 845.140198 24.713677 859.218116L44.088049 875.95113 26.712598 857.150765C28.162783 855.810492 32.877261 854.053882 40.792576 857.358219 49.035365 860.799264 51.2 865.870108 51.2 868.143132L51.2 389.973306C51.2 375.834816 39.73849 364.373306 25.6 364.373306 11.46151 364.373306 0 375.834816 0 389.973306L0 389.973306ZM696.80221 132.310188C618.971441 131.153539 562.335996 152.87903 524.86557 190.496398 502.148181 213.302876 490.896501 236.580977 487.035083 253.592249L486.4 259.259078 486.400004 699.099804C486.400006 735.198707 520.044004 750.0993 547.157161 727.231356L549.478807 725.27322 551.27783 722.82621C553.709086 719.519247 561.946746 712.434594 577.924452 704.516431 607.159834 690.02809 648.102165 681.094921 702.831787 681.094918 757.298833 681.094918 795.293111 689.593519 819.77162 703.092757 832.167345 709.928666 837.245391 715.403356 838.029591 717.021387L839.547055 720.152358 841.845105 722.764759C866.781167 751.111817 903.323712 736.73895 903.323712 699.335548L903.323712 398.950257 903.323712 259.259077 903.323712 252.450301 899.941158 246.541175C891.348196 231.529763 874.996732 210.287473 850.383556 189.149816 808.24231 152.95915 756.662673 131.392517 696.034325 132.310295L696.80221 132.310188ZM696.809291 183.504429C743.942063 182.790944 783.797257 199.455319 817.026071 227.992039 828.531119 237.872508 838.369481 248.478476 846.494989 259.034371 851.235031 265.192189 854.244804 269.773279 855.506263 271.976979L852.123712 259.259077 852.123712 398.950257 852.123712 699.335548C852.123712 696.799883 854.231635 691.585039 863.474707 687.949566 873.016412 684.196634 878.439633 686.846639 880.287925 688.947757L861.066515 705.856258 884.103441 694.69113C878.785579 683.718827 866.346381 670.308013 844.49655 658.258419 811.89913 640.28182 765.462916 629.894918 702.831785 629.894918 640.463232 629.894921 591.745741 640.524544 555.189638 658.64086 531.692454 670.285491 517.183533 682.763631 510.026502 692.498532L530.652166 707.66237 514.147172 688.093387C515.63949 686.834726 520.284527 685.337167 527.732117 688.635633 535.507665 692.079345 537.600004 696.981894 537.600004 699.099804L537.6 259.259077 536.964917 264.925906C537.274671 263.561299 538.52809 259.840447 541.081741 254.557311 545.63241 245.142637 552.196378 235.60826 561.140218 226.629346 588.544813 199.117283 631.736384 182.548893 696.041406 183.504536L696.809291 183.504429ZM972.799998 389.973306 972.799998 868.143132C972.799998 865.870108 974.964631 860.799264 983.207422 857.358219 991.122737 854.053882 995.837214 855.810492 997.287401 857.150765L979.911949 875.95113 999.286321 859.218116C987.127682 845.140198 964.238844 825.210385 930.504218 805.575332 874.925269 773.225916 808.525103 753.849815 731.662669 753.849818 653.132708 753.84982 590.55104 778.737178 543.127755 820.261999 514.370099 845.442805 496.945662 870.897404 488.705389 888.977229 482.841769 901.842485 488.517717 917.025242 501.382974 922.888862 514.248233 928.752482 529.430987 923.076533 535.294607 910.211275 536.420563 907.740836 539.350332 902.450639 544.25735 895.282189 552.731727 882.902347 563.54464 870.438419 576.856734 858.782071 615.190044 825.216625 665.901421 805.04982 731.662669 805.049818 799.091447 805.049818 856.704307 821.861709 904.748587 849.825615 921.433645 859.53706 935.6937 869.898093 947.501771 880.179637 954.344425 886.137687 958.698848 890.555164 960.537577 892.684141L962.536497 894.751492C989.206831 919.400433 1023.999998 904.875637 1023.999998 868.143132L1023.999998 389.973306C1023.999998 375.834816 1012.538487 364.373306 998.399998 364.373306 984.261508 364.373306 972.799998 375.834816 972.799998 389.973306L972.799998 389.973306Z" /></svg>
