<?xml version="1.0" standalone="no"?><!DOCTYPE svg PUBLIC "-//W3C//DTD SVG 1.1//EN" "http://www.w3.org/Graphics/SVG/1.1/DTD/svg11.dtd"><svg t="1563859250126" class="icon" viewBox="0 0 1024 1024" version="1.1" xmlns="http://www.w3.org/2000/svg" p-id="4478" xmlns:xlink="http://www.w3.org/1999/xlink" width="200" height="200"><defs><style type="text/css"></style></defs><path d="M744.446561 401.13603c0-151.621233-122.468263-189.769065-190.897771-199.248973 4.312212-7.010671 6.810103-15.247262 6.810103-24.099884 0-25.369807-20.559245-45.942355-45.929052-45.942355-25.355481 0-45.929052 20.586874-45.929052 45.942355 0 8.566096 2.341325 16.561188 6.40999 23.414269-67.358107 8.29492-195.579397 44.458561-195.579397 199.805652 0 123.023918-12.164041 284.381909-118.313639 284.381909l13.363356 50.16861c0 0 19.787672 6.824429 45.457308-1.199315l109.575628 0c22.744004 74.382081 91.615581 128.463814 173.050288 128.463814 81.421404 0 150.294005-54.081733 173.036985-128.463814l127.522372 0c26.112728 8.351202 46.370097 1.227967 46.370097 1.227967l13.364379-50.198286C763.648902 685.390026 744.446561 535.453155 744.446561 401.13603L744.446561 401.13603zM502.465344 809.255101c-53.880141 0-88.858794-29.738301-103.963817-74.895781l206.971865 0C590.468654 779.132036 555.747875 809.255101 502.465344 809.255101L502.465344 809.255101zM282.473955 680.806637c28.939099-46.927799 52.339042-130.933051 52.339042-279.984762 0-136.4016 172.737156-149.065014 180.088588-149.551084l0 0c0 0 174.065408 8.194636 174.065408 149.536758 0 148.951427 23.25668 233.012961 52.039213 279.999089L282.473955 680.806637 282.473955 680.806637zM282.473955 680.806637" p-id="4479"></path></svg>