<?xml version="1.0" standalone="no"?><!DOCTYPE svg PUBLIC "-//W3C//DTD SVG 1.1//EN" "http://www.w3.org/Graphics/SVG/1.1/DTD/svg11.dtd"><svg class="icon" width="64px" height="64.00px" viewBox="0 0 1024 1024" version="1.1" xmlns="http://www.w3.org/2000/svg"><path d="M988.362258 979.361919c-1.581185-4.743556-1.581185-4.743556-2.797482-6.932889-1.094667-1.946074-2.310963-3.648889-3.892149-5.716594-2.189334-2.797482-5.108445-6.324742-9.122223-10.703409-6.93289-7.784297-17.028151-18.609336-30.529042-32.475116-20.920299-21.893337-41.962228-43.300154-93.04668-95.114384-50.476304-51.327711-71.761492-72.977788-92.438532-94.627865-13.014372-13.62252-22.866374-23.961041-29.312745-31.25882-3.162371-3.648889-5.473334-6.324742-6.81126-7.905927 0.851408 1.581185 0.851408 1.581185 2.189334 5.473334 2.067704 7.297779 2.067704 7.297779-6.81126 24.082671C795.944156 646.826464 842.163422 539.914004 842.163422 425.460506c0-226.960922-180.741656-410.986578-403.810429-410.986578S34.542564 198.499584 34.542564 425.460506 215.28422 836.447084 438.352993 836.447084c4.865186 0 9.973631-0.243259 15.568595-0.608148 4.013778-0.364889 7.541038-0.608148 13.86578-1.337926 12.892743-1.337926 17.636299-1.702815 23.109633-1.702815 9.243853 0 23.961041-3.284 45.732747-9.365483 2.554223-0.729778 5.230075-1.459556 7.905927-2.189334 8.270816-2.310963 16.784891-4.865186 24.934078-7.419408 4.986816-1.581185 8.635705-2.675852 10.825038-3.405631 12.892743-4.135408 20.068892-18.122817 15.933484-31.258819-4.013778-13.136002-17.757928-20.433781-30.650671-16.298373-1.946074 0.608148-5.594964 1.824445-10.33852 3.284001-7.905927 2.432593-16.055113 4.865186-23.96104 7.176149-2.554223 0.729778-4.986816 1.459556-7.419409 2.067704-16.784891 4.621927-29.920893 7.541038-32.840005 7.541038-7.784297 0-13.257632 0.486519-28.096448 1.946075-5.959853 0.608148-9.243853 0.973037-12.649483 1.216296-4.500297 0.364889-8.392446 0.486519-11.919706 0.486519-195.945362 0-354.915311-161.767431-354.91531-361.240053S242.286002 64.098824 438.352993 64.098824s354.915311 161.767431 354.915311 361.240052c0 100.587718-40.624302 194.485806-110.926238 262.355149-9.000594 17.14978-9.000594 17.14978-6.811261 24.934078 1.581185 4.500297 1.581185 4.500297 2.797482 6.689631 1.094667 1.946074 2.310963 3.648889 3.892149 5.716593 2.189334 2.797482 5.108445 6.324742 9.122223 10.703409 6.93289 7.784297 17.028151 18.609336 30.529042 32.596746 20.920299 21.893337 42.205488 43.543414 92.92505 95.114384 50.841193 51.6926 71.761492 73.099418 92.560162 94.749495 13.014372 13.62252 22.866374 23.961041 29.312745 31.258819 3.162371 3.648889 5.473334 6.324742 6.68963 7.905927-0.973037-1.702815-0.973037-1.702815-2.310963-5.838223-2.067704-7.905927-2.067704-7.905927 7.905927-24.690818-10.33852 8.878964-11.554816 24.569189-2.919111 35.150968 8.757335 10.46015 24.2043 11.798076 34.54282 2.919111 9.852001-17.028151 9.852001-17.028151 7.784297-25.542226z"  /><path d="M435.677141 653.394465c127.954389 0 231.704478-103.750089 231.704478-231.704478S563.63153 189.985509 435.677141 189.985509 203.972663 293.735598 203.972663 421.689987c-0.12163 127.954389 103.628459 231.704478 231.704478 231.704478z m0-46.340896c-102.412163 0-185.363582-82.951419-185.363582-185.363582s82.951419-185.363582 185.363582-185.363582 185.363582 82.951419 185.363582 185.363582-83.073049 185.363582-185.363582 185.363582z"  /></svg>
