<?xml version="1.0" standalone="no"?><!DOCTYPE svg PUBLIC "-//W3C//DTD SVG 1.1//EN" "http://www.w3.org/Graphics/SVG/1.1/DTD/svg11.dtd"><svg class="icon" width="64px" height="63.94px" viewBox="0 0 1025 1024" version="1.1" xmlns="http://www.w3.org/2000/svg"><path d="M302.327525 504.7808l-146.944-88.064c-11.776-7.168-27.136-3.328-34.048 8.448-7.168 11.776-3.328 27.136 8.448 34.304l146.944 88.064c11.776 7.168 27.136 3.328 34.048-8.704C317.943525 527.0272 314.103525 511.6672 302.327525 504.7808zM458.999525 1020.8768c5.888 1.792 12.544 1.28 18.688-2.304C472.055525 1021.6448 465.399525 1022.6688 458.999525 1020.8768zM302.327525 504.7808l-146.944-88.064c-11.776-7.168-27.136-3.328-34.048 8.448-7.168 11.776-3.328 27.136 8.448 34.304l146.944 88.064c11.776 7.168 27.136 3.328 34.048-8.704C317.943525 527.0272 314.103525 511.6672 302.327525 504.7808zM302.327525 504.7808l-146.944-88.064c-11.776-7.168-27.136-3.328-34.048 8.448-7.168 11.776-3.328 27.136 8.448 34.304l146.944 88.064c11.776 7.168 27.136 3.328 34.048-8.704C317.943525 527.0272 314.103525 511.6672 302.327525 504.7808zM302.327525 504.7808l-146.944-88.064c-11.776-7.168-27.136-3.328-34.048 8.448-7.168 11.776-3.328 27.136 8.448 34.304l146.944 88.064c11.776 7.168 27.136 3.328 34.048-8.704C317.943525 527.0272 314.103525 511.6672 302.327525 504.7808zM302.327525 504.7808l-146.944-88.064c-11.776-7.168-27.136-3.328-34.048 8.448-7.168 11.776-3.328 27.136 8.448 34.304l146.944 88.064c11.776 7.168 27.136 3.328 34.048-8.704C317.943525 527.0272 314.103525 511.6672 302.327525 504.7808zM302.327525 504.7808l-146.944-88.064c-11.776-7.168-27.136-3.328-34.048 8.448-7.168 11.776-3.328 27.136 8.448 34.304l146.944 88.064c11.776 7.168 27.136 3.328 34.048-8.704C317.943525 527.0272 314.103525 511.6672 302.327525 504.7808zM477.687525 1018.5472c-6.144 3.584-12.8 4.096-18.688 2.304C465.399525 1022.6688 472.055525 1021.6448 477.687525 1018.5472zM857.284325 968.6784c-14.1568 0-25.6-11.4432-25.6-25.6l0-192.1792c0-6.9888 2.8672-13.7216 7.9616-18.56l127.616-121.3696c3.712-3.712 5.888-8.9856 5.888-14.7968 0-11.904-9.7024-21.5808-21.6064-21.5808L641.757925 574.592c-11.904 0-21.6064 9.6768-21.6064 21.5808 0 5.8368 2.2272 11.136 6.4512 15.36l117.7344 121.7792c4.6336 4.7872 7.1936 11.1616 7.1936 17.792l0 141.44c0 14.1568-11.4432 25.6-25.6 25.6s-25.6-11.4432-25.6-25.6l0-131.0976-110.2336-114.0224c-13.5168-13.5168-21.1456-31.8208-21.1456-51.2512 0-40.1152 32.64-72.7808 72.8064-72.7808l309.8112 0c40.1408 0 72.8064 32.64 72.8064 72.7808 0 19.4304-7.5776 37.6832-21.3504 51.456l-120.1152 114.2528 0 181.1968C882.884325 957.2352 871.441125 968.6784 857.284325 968.6784zM920.157925 266.3936c7.9872-5.1968 9.4976-11.8016 10.5472-16.5376 1.024-9.728-3.584-19.968-13.568-25.088l-440.32-220.16c-7.168-3.584-15.36-3.584-22.528 0l-440.32 220.16C-2.414875 235.52 0.145125 259.328 0.145125 261.888l0 469.76c0 8.704 4.608 16.896 12.032 21.504 0 0 430.848 260.352 438.272 263.68 15.104 7.424 24.576 5.376 31.744 1.792l143.36-82.944c12.288-7.168 16.384-22.784 9.216-35.072-6.912-12.288-22.784-16.384-34.816-9.472l-99.072 57.6 0-0.256-10.24 5.632L490.641125 511.744l389.632-221.184L920.157925 266.3936zM440.465125 511.744l0 441.088L50.065125 717.568l0-427.52L440.465125 511.744zM465.553125 468.224 78.225125 248.576l387.328-193.536 387.328 193.536L465.553125 468.224z" /></svg>
