<?xml version="1.0" standalone="no"?><!DOCTYPE svg PUBLIC "-//W3C//DTD SVG 1.1//EN" "http://www.w3.org/Graphics/SVG/1.1/DTD/svg11.dtd"><svg class="icon" width="64px" height="64.00px" viewBox="0 0 1024 1024" version="1.1" xmlns="http://www.w3.org/2000/svg"><path d="M539.151516 470.894308C580.924324 470.894308 614.787878 437.348425 614.787878 395.967479 614.787878 354.586534 580.924324 321.040651 539.151516 321.040651 497.378705 321.040651 463.515151 354.586534 463.515151 395.967479 463.515151 437.348425 497.378705 470.894308 539.151516 470.894308L539.151516 470.894308ZM539.151516 420.943089C525.227245 420.943089 513.939394 409.761129 513.939394 395.967479 513.939394 382.17383 525.227245 370.99187 539.151516 370.99187 553.075785 370.99187 564.363637 382.17383 564.363637 395.967479 564.363637 409.761129 553.075785 420.943089 539.151516 420.943089L539.151516 420.943089ZM435.304267 228.731223C247.753485 265.454739 110.545455 429.085807 110.545455 620.747968 110.545455 841.446342 291.151073 1020.357724 513.939394 1020.357724 736.727714 1020.357724 917.333333 841.446342 917.333333 620.747968 917.333333 439.751991 790.466897 281.451823 614.578714 234.713325L601.514526 282.958931C755.689673 323.927657 866.90909 462.703942 866.90909 620.747968 866.90909 813.859044 708.879174 970.406505 513.939394 970.406505 318.999614 970.406505 160.969697 813.859044 160.969697 620.747968 160.969697 453.051149 281.04344 309.854029 445.081946 277.734351L435.304267 228.731223 435.304267 228.731223ZM362.666667 645.723578C418.363746 645.723578 463.515151 600.995731 463.515151 545.821139 463.515151 490.646545 418.363746 445.918699 362.666667 445.918699 306.969587 445.918699 261.818182 490.646545 261.818182 545.821139 261.818182 600.995731 306.969587 645.723578 362.666667 645.723578L362.666667 645.723578ZM362.666667 595.772358C334.818127 595.772358 312.242423 573.408435 312.242423 545.821139 312.242423 518.233841 334.818127 495.869918 362.666667 495.869918 390.515206 495.869918 413.09091 518.233841 413.09091 545.821139 413.09091 573.408435 390.515206 595.772358 362.666667 595.772358L362.666667 595.772358ZM118.336328 613.826406C133.425252 628.114569 161.465796 648.583947 201.858288 668.805011 268.590074 702.211906 346.276843 722.231443 434.022231 722.23145 514.003603 722.231454 572.571484 709.604454 639.028858 683.904301 648.371872 680.291204 677.180911 668.650494 679.666547 667.668493 693.997408 662.006803 704.553047 658.248459 714.596041 655.369997 734.812975 649.575539 752.32589 647.709033 771.083349 649.85405 784.915759 651.435861 797.423597 641.609982 799.020388 627.907332 800.61718 614.204683 790.698251 601.814178 776.865841 600.232367 751.016318 597.276331 726.88307 599.848429 700.581677 607.386775 688.670974 610.80055 676.714903 615.057519 660.987473 621.27095 658.174426 622.3823 629.605316 633.926065 620.692019 637.372983 559.708732 660.956218 507.184486 672.280235 434.022236 672.28023 354.560674 672.280224 284.56814 654.243458 224.601289 624.223187 203.727373 613.773402 185.640133 602.614946 170.445517 591.522995 161.566625 585.041472 155.775729 580.177397 153.178823 577.718308 143.113425 568.187076 127.15405 568.543561 117.53256 578.514537 107.911071 588.485513 108.27093 604.295174 118.336328 613.826406L118.336328 613.826406ZM465.243565 277.264804 465.243565 145.31032 465.243565 120.330825 440.027522 120.33471 367.813557 120.345836 393.0296 145.321446 393.0296 55.804914 367.817478 80.780524 653.550573 80.780524 628.338451 55.804912 628.338447 147.102255 654.251853 122.13631 589.647977 120.355498 563.734571 119.641192 563.734571 145.321444 563.734571 283.089261 614.158814 283.089261 614.158814 145.321444 588.245408 170.28739 652.849284 172.068202 678.762688 172.782508 678.76269 147.102257 678.762694 55.804915 678.762697 30.829304 653.550573 30.829304 367.817478 30.829304 342.605357 30.829304 342.605357 55.804914 342.605357 145.321446 342.605357 170.30094 367.821399 170.297055 440.035364 170.285929 414.819324 145.310319 414.819322 277.264802 465.243565 277.264804 465.243565 277.264804Z" /></svg>
