<?xml version="1.0" standalone="no"?><!DOCTYPE svg PUBLIC "-//W3C//DTD SVG 1.1//EN" "http://www.w3.org/Graphics/SVG/1.1/DTD/svg11.dtd"><svg class="icon" width="64px" height="64.00px" viewBox="0 0 1024 1024" version="1.1" xmlns="http://www.w3.org/2000/svg"><path d="M647.349867 812.6816C653.312533 791.032533 656.3168 767.8928 656.3168 743.2624 656.3168 713.861867 651.202667 685.447467 640.9744 658.042133 630.746133 630.6368 615.426667 609.492267 594.9472 594.539733 574.467733 579.5872 551.144533 572.133867 524.84 572.133867 512.157867 572.133867 500.0032 573.968533 488.4448 577.614933 476.8864 581.261333 465.9472 586.7424 455.6272 594.081067 445.3072 601.419733 435.835733 611.326933 427.189867 623.871467 418.544 636.416 411.297067 653.501333 405.472 675.1504 399.646933 696.799467 396.7344 720.9024 396.7344 747.482133 396.7344 777.203733 401.4816 805.709867 410.953067 833.023467 420.424533 860.337067 435.285333 881.321067 455.512533 895.952533 475.739733 910.584 499.223467 917.899733 525.9408 917.899733 539.058667 917.899733 550.892267 916.1568 561.326933 912.648 571.7616 909.1392 583.411733 903.130667 596.2544 894.6224L630.081067 933.586133 659.642133 895.746133 627.6272 859.4656C636.479467 843.664533 643.015467 828.069867 647.349867 812.6816L647.349867 812.6816ZM596.506667 783.120533C594.855467 791.926933 591.897067 801.857067 587.539733 812.910933L561.326933 782.6848 532.2016 819.859733 557.061333 849.879467C551.098667 853.181867 545.869867 855.429333 541.374933 856.7136 536.88 857.997867 532.064 858.617067 526.812267 858.617067 511.446933 858.617067 497.916267 853.457067 486.266133 843.16 474.616 832.862933 466.199467 818.690133 460.947733 800.618667 455.696 782.5472 453.173333 764.017067 453.173333 745.0512 453.173333 723.837867 456.154667 704.000533 462.140267 685.4704 465.717867 674.714667 470.648533 665.312 476.932267 657.2624 483.216 649.2128 490.3024 642.8832 498.2144 638.3424 506.1264 633.8016 515.322667 631.508267 525.757333 631.508267 541.306133 631.508267 554.882667 636.599467 566.509867 646.736 578.137067 656.872533 586.6224 670.999467 591.92 689.070933 597.2176 707.1424 599.877867 725.6496 599.877867 744.615467 599.877867 758.3296 598.754133 771.1952 596.506667 783.120533L596.506667 783.120533ZM878.2656 580.458667 829.876267 838.229333 828.981867 838.229333 780.615467 580.458667 699.3168 580.458667 699.3168 909.666667 751.2608 909.666667 751.2608 634.4208 751.9488 634.4208 801.2096 909.666667 856.089067 909.666667 907.368 634.4208 908.033067 634.4208 908.033067 909.666667 960 909.666667 960 580.458667 878.2656 580.458667ZM785.133333 70.696533C779.4 65.284267 765.4336 62.784533 757.819733 64.7568 753.485333 65.903467 424.139733 158.6688 296.1488 449.4176 190.563733 364.151467 75.897067 335.461867 70.714133 334.223467 62.848 332.365867 54.637867 334.705067 49.065067 340.484267 43.4464 346.263467 41.359467 354.6112 43.538133 362.362667 48.2624 379.081067 158.663467 773.717867 287.571733 920.124267 312.821333 965.4864 344.1024 981.333333 365.797333 981.333333L368.067733 981.333333C385.886933 981.333333 403.3392 976.173333 420.4016 967 428.841067 963.6288 434.826667 955.4416 434.826667 945.786667 434.826667 933.104533 424.552533 922.853333 411.893333 922.853333 407.88 922.853333 407.788267 922.601067 400.977067 925.9952 394.165867 929.389333 386.506133 932.026667 381.277333 932.233067 369.994133 932.714667 362.724267 925.2384 353.894933 917.5328 335.066667 901.066667 318.5088 871.528533 313.7616 858.0896 305.666133 833.184 298.465067 800.6416 294.681067 758.696533 255.786133 328.6048 624.3248 162.911467 742.7984 120.2784 713.650133 251.319467 659 458.659733 633.452267 519.8688 630.631467 526.634133 619.348267 550.324267 619.348267 556.080533 619.348267 568.762667 629.599467 579.0368 642.2816 579.0368 651.3632 579.0368 658.954133 575.986667 662.784 565.941867 725.437867 400.684267 781.372267 142.2944 790.385067 99.3632 791.9904 91.6576 790.866667 76.1088 785.133333 70.696533L785.133333 70.696533ZM247.874133 764.062933C248.172267 767.250667 248.4704 770.392533 248.8144 773.557333 180.404267 643.594133 123.277333 469.048533 99.289067 390.8688 141.945067 406.4864 212.465067 437.8592 276.5408 491.981867 248.768533 575.642667 239.1136 667.077867 247.874133 764.062933L247.874133 764.062933Z" /></svg>
