<?xml version="1.0" standalone="no"?><!DOCTYPE svg PUBLIC "-//W3C//DTD SVG 1.1//EN" "http://www.w3.org/Graphics/SVG/1.1/DTD/svg11.dtd"><svg class="icon" width="64px" height="64.00px" viewBox="0 0 1024 1024" version="1.1" xmlns="http://www.w3.org/2000/svg"><path d="M735.5 959h-447C165.3 959 65 858.7 65 735.5v-447C65 165.3 165.3 65 288.5 65h447C858.7 65 959 165.3 959 288.5v447C959 858.7 858.7 959 735.5 959z m-447-812.7c-78.4 0-142.2 63.8-142.2 142.2v447c0 78.4 63.8 142.2 142.2 142.2h447c78.4 0 142.2-63.8 142.2-142.2v-447c0-78.4-63.8-142.2-142.2-142.2h-447z"  /><path d="M737.6 516.9v112.8h-25.7c-3.9-10.5-8.5-19.3-13.9-26.3-19.7-26-53.9-33-83.9-39.3-12-2.4-23.4-4.8-32.3-8.1-3.9-1.4-6.6-2.8-8.4-3.8 9.5-10.4 17.6-23.1 23.6-37.4 7.5-17.6 11.4-36.7 11.4-55.3 0-28.4-1.8-61-14.8-87.1-5.8-11.4-14.9-24.2-29.4-33.3 6.9-25 22.8-41.6 56.4-41.6 52.9 0 61 42.8 61 94.4 0 27-12 54.7-29.9 70.5a8.36 8.36 0 0 0-2.8 6.2c-0.1 6.4 0.1 14.8 2.6 18 14.8 19.9 55.4 20.5 86.1 30.3z m-412.7 87.4c19.2-27.4 54.4-34.4 85.3-40.7 12.1-2.4 23.5-4.8 32.6-7.9 3.7-1.3 6.4-2.5 8.2-3.6-9.5-10.4-17.3-22.9-23.4-37-7.4-17.5-11.4-36.2-11.7-54.4-0.3-24.1 1.2-42.5 4.3-58.1 4.6-22.4 13-39.5 25.7-52.4 4.2-4.4 9-8.1 14-11.2-7.1-25.1-22.6-41.8-55.6-41.8-54.5 0-62.1 43.3-61.6 95.2 0.3 26.5 12.3 54.1 29.9 69.7 1.8 1.6 2.8 3.9 2.8 6.3 0 6.4-0.4 14.8-2.7 17.7-14.6 19.9-55.5 20.4-86.4 29.9v113.5h25.8c3.7-9.9 8-18.3 12.8-25.2z m373.7 112.5c0.3 5.5-4.1 10.1-9.5 10.1H335.4c-5.5 0-9.8-4.6-9.5-10.1 1.3-21.6 5.8-72.4 22.2-95.7 24.8-35.3 106.7-23.2 129.6-54.7 2.6-3.4 3-12.8 3-19.9 0-2.7-1.1-5.3-3.1-7.2-19.7-17.6-33-48.4-33.2-78.2-0.6-58.3 7.9-106.7 68.4-106.7 58.6 0 67.5 47.9 67.5 105.9 0 30.3-13.3 61.3-33 79-1.9 1.7-3.1 4.4-3.2 6.9-0.2 7.2 0.3 16.7 2.8 20.2 23.2 31.6 102.7 20.3 129 54.7 17.1 22.8 21.5 74 22.7 95.7"  /></svg>
