<?xml version="1.0" standalone="no"?><!DOCTYPE svg PUBLIC "-//W3C//DTD SVG 1.1//EN" "http://www.w3.org/Graphics/SVG/1.1/DTD/svg11.dtd"><svg t="1553663754701" class="icon" style="" viewBox="0 0 1024 1024" version="1.1" xmlns="http://www.w3.org/2000/svg" p-id="2027" xmlns:xlink="http://www.w3.org/1999/xlink" width="200" height="200"><defs><style type="text/css"></style></defs><path d="M576.661695 956.399369 475.05353 956.399369l-29.641087-134.731564c-28.670993-7.734148-58.597583-24.189935-90.947362-44.962028l-110.861924 70.784136-71.740928-72.208579 68.753897-121.078613c-13.632485-24.89397-24.069185-50.092885-30.448476-74.78424L62.966077 542.544667l0-101.765755 151.655002-29.551036c7.207146-25.375947 17.651009-49.720402 30.80868-72.568782l-73.553203-124.560924 71.926146-71.725578 118.676913 79.347163c23.569812-13.662161 50.152237-24.473391 79.19162-32.206516l0.62217 3.746324 32.926924-131.227764 101.276614 0 32.567743 129.888256c24.826432 6.605442 48.660256 13.805424 71.02666 25.970488l123.335003-74.163093 71.350025 71.424726-76.615958 113.163339c15.114233 24.577768 26.869974 52.745295 35.656081 85.876879l123.520221 26.888394 0 101.089349-120.863718 34.147728c-6.010901 26.458605-15.22168 58.229193-32.336476 88.089267l71.446215 110.177332-71.482031 72.109318-116.100228-65.361637c-28.271904 16.739243-55.168484 33.334199-81.732489 40.367383L576.661695 956.399369zM499.624135 924.676877l52.466955 0 28.415167-129.049145 9.494235-4.372587c28.693506-6.417153 57.995879-20.170388 89.600691-39.73805l7.734148-5.352915 111.403253 62.440098 37.473473-37.944194-68.566632-105.793488 5.296633-8.385994c15.640212-24.63098 26.541493-54.147224 35.351136-95.659687l1.506307-9.111518 115.813702-32.847106 0-52.985772-117.551276-25.820062-2.054799-9.366322c-9.148357-37.743626-21.892613-68.573795-39.188534-94.257757l-5.747911-8.621355 73.987085-109.515253-36.625152-36.953633-113.2626 66.354244-6.105045 1.579985-6.919597-2.791579c-23.329335-13.527085-48.560996-23.750937-75.005274-30.393217l-4.137227-1.038656-11.795651-6.798846-28.949332-114.5008L499.459383 93.753267 470.750527 207.140711l-10.946306 12.066827-5.296633 0.067538c-31.958876 8.026814-59.44795 18.804275-84.026742 34.249035l-7.643074 4.485151-10.028401-5.618974L247.726058 182.104501l-37.06722 36.95261 66.452481 113.731274 2.264577 9.476839-3.310396 5.412266c-15.061021 24.698518-26.330692 51.441603-33.500998 79.487356l-2.106987 8.259104-19.688411 6.220678-126.081557 24.532743 0 52.308343 129.045051 32.462343 13.135158 5.476735 1.723248 7.786337c5.875824 26.098401 16.535605 52.887534 31.710212 79.618339l2.460028 4.340865-1.598404 14.362102-60.886719 106.941638 37.449937 37.359886 106.911962-69.462025 8.448416 5.665023c36.07359 24.164353 68.325132 39.20286 98.598622 45.974078l9.494235 6.616698L499.624135 924.676877z" p-id="2028" fill="#409EFF"></path><path d="M525.857613 653.774981c-84.958974 0-154.075121-69.115124-154.075121-154.075121s69.115124-154.075121 154.075121-154.075121 154.075121 69.115124 154.075121 154.075121S610.81761 653.774981 525.857613 653.774981zM525.857613 376.440581c-67.964928 0-123.260302 55.295374-123.260302 123.260302s55.295374 123.260302 123.260302 123.260302S649.117914 567.664787 649.117914 499.700883 593.82254 376.440581 525.857613 376.440581z" p-id="2029" fill="#409EFF"></path></svg>