<?xml version="1.0" standalone="no"?><!DOCTYPE svg PUBLIC "-//W3C//DTD SVG 1.1//EN" "http://www.w3.org/Graphics/SVG/1.1/DTD/svg11.dtd"><svg t="1546592059243" class="icon" style="" viewBox="0 0 1024 1024" version="1.1" xmlns="http://www.w3.org/2000/svg" p-id="4953" xmlns:xlink="http://www.w3.org/1999/xlink" width="200" height="200"><defs><style type="text/css"></style></defs><path d="M863.29078531 598.38942781l-44.42939718 0c-7.20567469 26.13651937-17.61653625 50.95297406-30.86707219 73.93227375l41.06399906 41.12060063c26.2938525 26.29289344 26.2938525 68.9379 0 95.22695625l-23.8168125 23.82160875c-26.2938525 26.28809625-68.9379 26.28809625-95.22695625 0l-41.33261625-41.33261625c-22.92269813 13.0423575-47.64034031 23.24408063-73.66749375 30.34134844l0 43.11796593c0 37.17671437-30.12837281 67.30508719-67.30604625 67.30508719l-33.65398219 0c-37.17287719 0-67.30508719-30.12837281-67.30508718-67.30508719L426.74931969 821.49959938c-26.0281125-7.09630875-50.73999844-17.2462275-73.66845282-30.34134844l-41.32877906 41.33261625c-26.29289344 26.28809625-68.9379 26.28809625-95.22695625 0l-23.82160875-23.87341407c-26.29289344-26.2938525-26.29289344-68.93406281 0-95.22695624l41.06783625-41.12060063c-13.25053594-22.97929969-23.60863313-47.79575438-30.86611312-73.93227375l-44.43419344 0c-37.17671437 0-67.30508719-30.12837281-67.30508719-67.30508719l0-33.651105c0-37.17671437 30.12837281-67.30892438 67.30508719-67.30892437l43.90846969 0c6.99269906-25.92354375 16.92964125-50.58458344 29.81466562-73.40367188l-39.491625-39.54342937c-26.29289344-26.29289344-26.29289344-68.93406281 0-95.22599719l23.76596625-23.82256875c26.29289344-26.28809625 68.9379-26.28809625 95.23079344 0l38.75388469 38.75388469c23.6613975-13.77625969 49.21655156-24.50466563 76.24334719-31.86575531l0-45.21990094c0-37.17671437 30.12837281-67.30508719 67.30508718-67.30508719l33.65494219 0c37.17671437 0 67.30508719 30.12837281 67.30508719 67.30508719l0 45.21990094c27.02679563 7.36204875 52.63375406 18.1413 76.29994875 31.91851968l38.70112031-38.75388468c26.28905625-26.28905625 68.93502188-26.28905625 95.22695625 0l23.81873063 23.82160875c26.29289344 26.2938525 26.29289344 68.9379 0 95.22695625l-39.4359825 39.491625c12.88214625 22.87185281 22.81908844 47.53481156 29.81466562 73.40367187l43.9046325 0c37.17767344 0 67.30508719 30.13221 67.30508719 67.30892438l0 33.651105C930.59587156 568.261055 900.46845875 598.38942781 863.29078531 598.38942781L863.29078531 598.38942781zM510.8823575 301.13880406c-118.25902031 0-214.12010625 95.86108594-214.12010625 214.11914719 0 118.25902031 95.86108594 214.11914719 214.12010625 214.11914719 118.25806125 0 214.16711437-95.86012687 214.16711437-214.11914719C725.05043187 396.99989 629.14041875 301.13880406 510.8823575 301.13880406L510.8823575 301.13880406zM510.8823575 597.33798125c-46.48432406 0-84.18676125-37.70243813-84.18676125-84.18292406 0-46.48336406 37.70243813-84.13495688 84.18676125-84.13495688 46.48048594 0 84.13015969 37.70243813 84.13015969 84.13495688C595.01347719 559.63554312 557.36284438 597.33798125 510.8823575 597.33798125L510.8823575 597.33798125zM510.8823575 597.33798125" p-id="4954"></path></svg>