<?xml version="1.0" standalone="no"?><!DOCTYPE svg PUBLIC "-//W3C//DTD SVG 1.1//EN" "http://www.w3.org/Graphics/SVG/1.1/DTD/svg11.dtd"><svg class="icon" width="64px" height="53.32px" viewBox="0 0 1229 1024" version="1.1" xmlns="http://www.w3.org/2000/svg"><path d="M1041.842629 983.992148C1041.574671 981.125315 1041.096008 975.625377 1040.476664 967.855506 1039.439588 954.844997 1038.401431 940.287388 1037.432102 924.54711 1034.417649 875.597343 1032.726697 826.424701 1033.041608 780.698452 1033.595712 700.240102 1040.539249 639.832622 1053.710848 612.106217 1054.575258 610.28662 1055.494344 608.442785 1056.468567 606.573292 1069.325504 581.901366 1079.541729 568.682391 1129.130509 509.15957 1199.865997 424.253752 1228.799992 373.908777 1228.8 307.108111 1228.800015 166.431798 1151.172884 9.473942 1054.290068 9.473941 1027.320425 9.47394 1020.494518 17.745794 943.645847 122.560421 865.553546 229.07125 828.143122 277.945769 772.255767 342.619052 759.180938 357.749343 746.130808 372.398403 733.069425 386.581716 622.283628 506.883661 444.325788 642.066094 386.69782 660.177172 359.410447 668.752932 337.251346 675.245932 316.579446 680.86273 305.590316 683.848607 276.836124 691.287278 273.941709 692.062861 269.993324 693.120863 266.423439 694.108255 262.964977 695.103631 240.935593 701.443889 220.249322 709.124252 186.750361 723.649347 136.419494 745.47273 80.689269 781.327368 45.237294 817.250276-5.609663 868.772667-18.137835 924.294405 31.22404 965.446623L34.244045 967.964352 37.812642 969.614961C106.845435 1001.545188 458.018816 1001.296253 577.50006 971.486451 641.39968 955.543905 663.400584 922.66282 680.645786 848.471301 697.993516 773.838684 707.996403 747.489152 742.255811 708.356882 782.727985 662.128174 818.636375 634.721574 849.143867 621.686118 858.822139 617.55072 866.903613 615.342648 873.361915 614.519572 875.221893 614.282527 876.654451 614.200223 877.656689 614.210954 877.960827 614.218844 877.960827 614.218844 877.820946 614.210819 877.667264 614.198282 877.667264 614.198282 877.40151 614.170721 877.247534 614.153436 877.247534 614.153436 877.065308 614.131021 876.968865 614.118761 876.968865 614.118761 876.865183 614.105024 876.80801 614.097321 876.80801 614.097321 876.780124 614.093504L876.719086 614.085074C892.981158 616.391352 908.102239 605.026358 910.418924 588.690245 912.735608 572.354132 901.370614 557.233052 885.034499 554.916367L884.957614 554.905567C884.85922 554.892012 884.85922 554.892012 884.791631 554.882908 884.66145 554.865656 884.66145 554.865656 884.52341 554.848102 884.235377 554.812618 884.235377 554.812618 883.915494 554.77665 883.228065 554.704794 883.228065 554.704794 882.414625 554.637455 880.60042 554.516029 880.60042 554.516029 878.296463 554.464169 874.567969 554.424246 870.397914 554.663826 865.808159 555.248765 853.838666 556.774216 840.400965 560.44575 825.666742 566.741491 786.424266 583.509289 743.386163 616.35755 697.299825 668.998948 654.603279 717.76841 641.913705 751.195195 622.447107 834.943501 609.737966 889.620193 599.905884 904.314568 563.03614 913.513331 455.550428 940.330324 117.346311 940.570066 62.896093 915.384822L69.484695 919.55316C54.166367 906.782513 58.12056 889.258514 87.764912 859.220375 117.379371 829.212529 166.76305 797.441006 210.519721 778.468186 241.820793 764.896092 260.166646 758.084675 279.490796 752.523008 282.571448 751.63637 285.793469 750.745193 289.406692 749.776998 291.92748 749.101532 320.818563 741.627448 332.246262 738.522409 353.674109 732.700209 376.582413 725.987681 404.612009 717.178657 474.269619 695.286956 659.787564 554.361623 777.021791 427.057354 790.519375 412.400369 803.987213 397.282424 817.464632 381.686249 874.728174 315.420434 912.812252 265.665823 991.832087 157.889923 1020.894784 118.251037 1034.13195 100.642716 1046.128689 86.10469 1052.847462 77.962667 1058.146598 72.16276 1061.926211 68.737964 1062.091387 68.588292 1061.01237 69.224151 1054.290068 69.224151 1106.729395 69.224151 1169.049802 195.232643 1169.049789 307.108106 1169.049784 355.006057 1145.165757 396.564119 1083.22398 470.914593 1030.081779 534.702689 1019.223457 548.752481 1003.481403 578.960829 1002.171738 581.474022 1000.924938 583.975304 999.741002 586.467512 981.526835 624.808594 973.907036 691.099436 973.292815 780.286971 972.967386 827.540362 974.703086 878.014221 977.79487 928.219727 978.787156 944.332805 979.850726 959.246781 980.915377 972.603185 981.557071 980.65346 982.059213 986.423191 982.351718 989.552643 983.887206 1005.980605 998.449459 1018.05334 1014.87742 1016.517852 1031.305382 1014.982364 1043.378117 1000.420109 1041.842629 983.992148L1041.842629 983.992148Z" /></svg>
