<?xml version="1.0" standalone="no"?><!DOCTYPE svg PUBLIC "-//W3C//DTD SVG 1.1//EN" "http://www.w3.org/Graphics/SVG/1.1/DTD/svg11.dtd"><svg class="icon" width="64px" height="64.00px" viewBox="0 0 1024 1024" version="1.1" xmlns="http://www.w3.org/2000/svg"><path d="M127.905952 837.407788c-42.886113 0-76.743571-33.857458-76.743571-75.238795V191.858927h844.931667c42.133725 0 76.743571 33.857458 76.743571 75.238795V759.91183c0 13.542983 11.285819 24.828802 25.581191 24.828802s25.58119-11.285819 25.58119-24.828802V267.097722c0-69.219691-57.181484-125.648788-127.905952-125.648787H0V761.416605c0 69.219691 57.181484 125.648788 127.905952 125.648788h783.235855c14.295371 0 25.58119-11.285819 25.581191-24.828802 0-13.542983-11.285819-24.828802-25.581191-24.828803H127.905952zM889.322557 469.490081H134.677443V277.631154h754.645114v191.858927zM188.096988 416.070536h647.806024V331.050698H188.096988v85.019838z" /></svg>
