<?xml version="1.0" standalone="no"?><!DOCTYPE svg PUBLIC "-//W3C//DTD SVG 1.1//EN" "http://www.w3.org/Graphics/SVG/1.1/DTD/svg11.dtd"><svg t="1588852352236" class="icon" viewBox="0 0 1024 1024" version="1.1" xmlns="http://www.w3.org/2000/svg" p-id="2830" xmlns:xlink="http://www.w3.org/1999/xlink" width="200" height="200"><defs><style type="text/css"></style></defs><path d="M206.949287 999.823724a18.274259 18.274259 0 0 1-18.054307-21.426889l56.6557-330.256359L5.602517 414.277624a18.347575 18.347575 0 0 1 10.172732-31.251365l331.576065-48.187589 148.301931-300.471333a18.255929 18.255929 0 1 1 32.846009 0l148.283602 300.471333 331.594394 48.187589a18.365905 18.365905 0 0 1 10.172732 31.251365L778.601819 648.177135l56.637371 330.23803c1.173072 6.873467-1.649632 13.820252-7.276711 17.926002a18.200942 18.200942 0 0 1-19.319025 1.393023l-296.567204-155.908568-296.603863 155.908568a18.47588 18.47588 0 0 1-8.5231 2.089534zM57.785881 413.947697l220.244223 214.690461a18.329246 18.329246 0 0 1 5.260494 16.221383L231.290526 947.988616l272.262624-143.114755a18.255929 18.255929 0 0 1 17.064528 0l272.225966 143.114755-51.981743-303.129075a18.329246 18.329246 0 0 1 5.260494-16.221383l220.244223-214.690461-304.357134-44.228471a18.329246 18.329246 0 0 1-13.801922-10.026098L512.07625 83.911289l-136.131312 275.800169a18.329246 18.329246 0 0 1-13.801923 10.026097L57.785881 413.947697z" p-id="2831"></path></svg>