<?xml version="1.0" standalone="no"?><!DOCTYPE svg PUBLIC "-//W3C//DTD SVG 1.1//EN" "http://www.w3.org/Graphics/SVG/1.1/DTD/svg11.dtd"><svg t="1546855015200" class="icon" style="" viewBox="0 0 1024 1024" version="1.1" xmlns="http://www.w3.org/2000/svg" p-id="5200" xmlns:xlink="http://www.w3.org/1999/xlink" width="200" height="200"><defs><style type="text/css"></style></defs><path d="M464.247573 677.487844C474.21462201 686.649009 489.66582401 686.201589 499.086059 676.479029L798.905035 367.037897C808.503379 357.131511 808.25366201 341.31980201 798.347275 331.721455 788.44089001 322.12310999 772.62918 322.372828 763.030833 332.279215L463.211857 641.72034601 498.05034201 640.711531 316.60883799 473.940461C306.45334201 464.606084 290.653675 465.271735 281.31929801 475.42723399 271.98492201 485.582733 272.650573 501.38239801 282.806071 510.71677399L464.247573 677.487844Z" p-id="5201"></path><path d="M1024 512C1024 229.230208 794.769792 0 512 0 229.230208 0 0 229.230208 0 512 0 794.769792 229.230208 1024 512 1024 629.410831 1024 740.826187 984.33104599 830.768465 912.68666201 841.557579 904.092491 843.33692999 888.37923399 834.74275799 877.590121 826.148587 866.801009 810.43533001 865.02165801 799.646219 873.615827 718.470035 938.277495 618.001779 974.048781 512 974.048781 256.81750399 974.048781 49.951219 767.18249601 49.951219 512 49.951219 256.81750399 256.81750399 49.951219 512 49.951219 767.18249601 49.951219 974.048781 256.81750399 974.048781 512 974.048781 599.49283401 949.714859 683.336764 904.470807 755.960693 897.177109 767.668243 900.755245 783.071797 912.462793 790.365493 924.17034199 797.659191 939.573897 794.08105799 946.867595 782.373508 997.01382599 701.880796 1024 608.898379 1024 512Z" p-id="5202"></path></svg>