<?xml version="1.0" standalone="no"?><!DOCTYPE svg PUBLIC "-//W3C//DTD SVG 1.1//EN" "http://www.w3.org/Graphics/SVG/1.1/DTD/svg11.dtd"><svg t="1546593965067" class="icon" style="" viewBox="0 0 1024 1024" version="1.1" xmlns="http://www.w3.org/2000/svg" p-id="5135" xmlns:xlink="http://www.w3.org/1999/xlink" width="200" height="200"><defs><style type="text/css"></style></defs><path d="M329.4701037 399.61595449l365.0597926 0 0 93.20675556-365.0597926 0 0-93.20675556ZM329.4701037 244.2713619l365.0597926 0 0 93.20675555-365.0597926 0 0-93.20675555ZM329.4701037 554.96054708l208.7442963 0 0 93.20675555-208.7442963 0 0-93.20675555ZM978.03377778 703.47774483c-31.7990381-52.99580777-31.28640095-53.99778038-31.28640095-53.99778038s-109.77425635 30.78153102-130.21760474-74.44112877l-63.59807621 0c0 0-17.5384045 105.38577162-129.69720036 74.18481019-32.4281837 54.04438377-33.53113031 55.73763982-33.56219922 55.76870874 0.04660338 0.03106892 87.7929965 61.33781238 0 144.59474678l34.07483638 56.02502732c0 0 96.93502578-41.81876432 128.6874605 72.42164907l64.35149749 0c0 0 20.18702981-104.98187568 129.20009765-73.94402608 31.0378496-52.98804053 31.54271952-53.50067769 31.54271953-53.50067768S895.2273427 779.64319858 978.03377778 703.47774483L978.03377778 703.47774483zM783.34816711 850.72111692c-40.96436907 0-74.19257742-33.2126739-74.19257742-74.19257742s33.22044112-74.20034465 74.19257742-74.20034465c40.9721363 0 74.20034465 33.22044112 74.20034466 74.20034465S824.32030341 850.72111692 783.34816711 850.72111692L783.34816711 850.72111692zM783.34816711 850.72111692M263.1457299 885.28528877c-34.36222388 0-62.21550933-27.85328545-62.21550933-62.21550934L200.93022057 200.93022057c0-34.36222388 27.85328545-62.21550933 62.21550933-62.21550934l497.7085402 0c34.36999111 0 62.21550933 27.85328545 62.21550933 62.21550934L823.06977943 531.41807408 900.36148148 531.41807408 900.36148148 123.63851852c0-42.89840925-34.77388705-77.6722963-77.6722963-77.6722963L201.31081482 45.96622222c-42.89840925 0-77.6722963 34.77388705-77.6722963 77.6722963l0 776.72296296c0 42.89064202 34.77388705 77.6722963 77.6722963 77.6722963l357.29256296 0 0-92.74848901L263.1457299 885.28528877z" p-id="5136"></path></svg>