<?xml version="1.0" standalone="no"?><!DOCTYPE svg PUBLIC "-//W3C//DTD SVG 1.1//EN" "http://www.w3.org/Graphics/SVG/1.1/DTD/svg11.dtd"><svg class="icon" width="64px" height="64.00px" viewBox="0 0 1024 1024" version="1.1" xmlns="http://www.w3.org/2000/svg"><path d="M608 293.1968c14.1568 0 25.6-11.6224 25.6-25.9584 0-14.336-11.4432-25.9328-25.6-25.9328l-140.8 0c-14.1312 0-25.6 11.6224-25.6 25.9328 0 14.336 11.4688 25.9584 25.6 25.9584L608 293.1968 608 293.1968zM864 293.1968c14.1568 0 25.6-11.6224 25.6-25.9584 0-14.336-11.4432-25.9328-25.6-25.9328l-140.8 0c-14.1568 0-25.6 11.6224-25.6 25.9328 0 14.336 11.4432 25.9584 25.6 25.9584L864 293.1968 864 293.1968zM608 448.8448c14.1568 0 25.6-11.5968 25.6-25.9328s-11.4432-25.9584-25.6-25.9584l-140.8 0c-14.1312 0-25.6 11.6224-25.6 25.9584s11.4688 25.9328 25.6 25.9328L608 448.8448 608 448.8448zM864 448.8448c14.1568 0 25.6-11.5968 25.6-25.9328s-11.4432-25.9584-25.6-25.9584l-140.8 0c-14.1568 0-25.6 11.6224-25.6 25.9584s11.4432 25.9328 25.6 25.9328L864 448.8448 864 448.8448zM608 604.544c14.1568 0 25.6-11.6224 25.6-25.9584 0-14.3616-11.4432-25.9584-25.6-25.9584l-140.8 0c-14.1312 0-25.6 11.5968-25.6 25.9584 0 14.336 11.4688 25.9584 25.6 25.9584L608 604.544 608 604.544zM864 604.544c14.1568 0 25.6-11.6224 25.6-25.9584 0-14.3616-11.4432-25.9584-25.6-25.9584l-140.8 0c-14.1568 0-25.6 11.5968-25.6 25.9584 0 14.336 11.4432 25.9584 25.6 25.9584L864 604.544 864 604.544zM864 604.544M608 760.2688c14.1568 0 25.6-11.6224 25.6-25.9584 0-14.3616-11.4432-25.9584-25.6-25.9584l-140.8 0c-14.1312 0-25.6 11.5968-25.6 25.9584 0 14.336 11.4688 25.9584 25.6 25.9584L608 760.2688 608 760.2688zM864 760.2688c14.1568 0 25.6-11.6224 25.6-25.9584 0-14.3616-11.4432-25.9584-25.6-25.9584l-140.8 0c-14.1568 0-25.6 11.5968-25.6 25.9584 0 14.336 11.4432 25.9584 25.6 25.9584L864 760.2688 864 760.2688zM864 760.2688M352 293.1968c14.1568 0 25.6-11.6224 25.6-25.9584 0-14.336-11.4432-25.9328-25.6-25.9328l-140.8 0c-14.1312 0-25.6 11.6224-25.6 25.9328 0 14.336 11.4688 25.9584 25.6 25.9584L352 293.1968 352 293.1968zM352 448.8448c14.1568 0 25.6-11.5968 25.6-25.9328s-11.4432-25.9584-25.6-25.9584l-140.8 0c-14.1312 0-25.6 11.6224-25.6 25.9584s11.4688 25.9328 25.6 25.9328L352 448.8448 352 448.8448zM352 604.544c14.1568 0 25.6-11.6224 25.6-25.9584 0-14.3616-11.4432-25.9584-25.6-25.9584l-140.8 0c-14.1312 0-25.6 11.5968-25.6 25.9584 0 14.336 11.4688 25.9584 25.6 25.9584L352 604.544 352 604.544zM608 604.544M352 760.2688c14.1568 0 25.6-11.6224 25.6-25.9584 0-14.3616-11.4432-25.9584-25.6-25.9584l-140.8 0c-14.1312 0-25.6 11.5968-25.6 25.9584 0 14.336 11.4688 25.9584 25.6 25.9584L352 760.2688 352 760.2688zM608 760.2688M881.7664 64 28.4416 64 0 64l0 28.9024 0 722.5344C0 895.2576 63.6928 960 142.2336 960l853.3248 0L1024 960l0-28.9024L1024 670.976c0-15.9744-12.7232-28.9024-28.4416-28.9024-15.6928 0-28.4416 12.928-28.4416 28.9024l0 231.2192L142.2336 902.1952c-47.104 0-85.3248-38.8608-85.3248-86.784L56.9088 121.8048l824.8832 0c47.104 0 85.3248 38.912 85.3248 86.8864l0.2304 259.9424c0.4608 15.3088 12.8512 27.648 28.2624 27.648s27.8016-12.3392 28.2624-27.648L1024 208.6912C1024 128.7936 960.3328 64 881.7664 64z" /></svg>
