<?xml version="1.0" standalone="no"?><!DOCTYPE svg PUBLIC "-//W3C//DTD SVG 1.1//EN" "http://www.w3.org/Graphics/SVG/1.1/DTD/svg11.dtd"><svg class="icon" width="64px" height="64.00px" viewBox="0 0 1024 1024" version="1.1" xmlns="http://www.w3.org/2000/svg"><path d="M776.682667 93.589333l-151.701334 76.394667 36.693334 72.938667c-1.728 0.64-3.029333 1.728-4.522667 2.816-4.970667 3.882667-20.501333 14.250667-33.450667 16.618666-25.216 3.136-40.832-9.685333-62.592-2.581333-12.309333 3.029333-30.869333 14.250667-51.370666 29.354667-18.773333-10.581333-50.709333-27.2-69.056-29.568-15.573333-1.877333-42.517333 3.029333-49.642667 2.368-11.008-0.874667-25.472-9.28-31.722667-13.589334l39.488-78.336-151.488-76.394666L0 584.533333l151.722667 76.181334 188.181333-373.568c10.368 6.464 32.170667 17.898667 51.2 17.898666 16.170667 0 25.642667-5.013333 43.754667-2.773333 6.464 0.853333 21.589333 7.552 37.76 15.744a1837.546667 1837.546667 0 0 0-85.461334 75.541333c-30.549333 32.746667-31.018667 73.109333-7.552 100.736 27.328 34.005333 59.882667 25.621333 88.277334 13.866667l80.448-41.536c11.669333-6.165333 19.776-10.432 19.882666-10.261333l170.261334 147.178666c5.824 5.184 9.493333 12.074667 10.133333 19.861334 0.64 7.978667-1.728 15.530667-6.912 21.354666-18.346667 21.589333-31.722667 10.133333-31.722667 10.133334l-32.810666-25.237334-26.538667 34.090667s24.768 18.709333 32.597333 25.472c4.736 4.074667 5.184 7.765333 4.757334 10.794667-0.426667 6.037333-4.309333 13.376-10.794667 20.928-9.92 11.648-17.258667 14.890667-22.656 14.890666-4.970667 0-8.192-2.816-9.92-4.309333a7153.130667 7153.130667 0 0 0-38.848-28.48l-25.898667 34.538667 37.973334 28.266666c4.522667 4.309333 4.970667 7.765333 4.757333 11.008-0.64 5.824-4.757333 13.589333-11.221333 21.354667-6.912 7.765333-13.802667 13.162667-20.074667 14.890667-3.648 0.981333-6.656 1.322667-12.074667-2.816l-46.186666-37.546667-27.2 33.450667 44.245333 36.032c5.824 4.757333 6.250667 8.64 5.824 12.074666-0.64 6.037333-4.757333 13.589333-11.434667 21.376a29.184 29.184 0 0 1-19.648 10.133334c-7.765333 0.64-15.317333-1.941333-22.442666-7.765334l-206.4-173.909333c-9.706667-7.125333-23.082667-5.184-30.208 4.309333s-5.184 23.082667 4.309333 30.208l205.525333 173.056a71.594667 71.594667 0 0 0 46.613334 17.258667c26.325333-1.066667 41.6-11.605333 55.253333-25.258667 19.2-19.2 21.589333-47.04 21.589333-48.128 1.301333-0.426667 32.597333-14.890667 45.098667-29.568 18.261333-20.416 21.568-41.728 21.589333-48.341333 15.317333-3.242667 30.656-12.736 44.245334-28.693333 13.162667-15.530667 20.288-32.149333 21.141333-47.701334 0.853333-0.213333 26.88-7.829333 43.584-28.48 7.125333-8.426667 12.074667-18.133333 14.677333-28.693333 0.853333-0.426667 55.68-37.333333 55.68-37.333333l27.2 53.952L1024 584.533333 776.682667 93.589333zM132.501333 602.88l-74.453333-37.546667 208.256-413.909333 74.666667 37.546667L132.501333 602.88z m652.608-7.765333a72.704 72.704 0 0 0-18.56-24.384l-180.842666-156.458667a21.781333 21.781333 0 0 0-23.744-3.029333c-3.242667 1.514667-80.597333 42.069333-107.754667 57.792-14.72 8.448-32.277333 9.770667-42.453333-5.525334-9.770667-14.442667-5.482667-27.989333 4.117333-37.589333 59.562667-56.106667 135.914667-119.509333 155.370667-124.096 20.522667-5.696 32.234667 5.994667 60.202666 2.816 21.632-1.813333 42.944-18.133333 49.856-23.082667l144.149334 286.165334-40.341334 27.392zM683.029333 188.970667l74.453334-37.546667L965.952 565.333333l-74.666667 37.546667-208.256-413.909333z"  /></svg>
