<?xml version="1.0" standalone="no"?><!DOCTYPE svg PUBLIC "-//W3C//DTD SVG 1.1//EN" "http://www.w3.org/Graphics/SVG/1.1/DTD/svg11.dtd"><svg t="1541583652015" class="icon" style="" viewBox="0 0 1027 1024" version="1.1" xmlns="http://www.w3.org/2000/svg" p-id="6308" xmlns:xlink="http://www.w3.org/1999/xlink" width="64.1875" height="64"><defs><style type="text/css"></style></defs><path d="M873.411765 0h-722.82353C66.258824 0 0 66.258824 0 150.588235v722.82353C0 957.741176 66.258824 1024 150.588235 1024h246.964706c18.070588 0 30.117647-12.047059 30.117647-30.117647s-12.047059-30.117647-30.117647-30.11764701H150.588235c-48.188235 0-90.352941-42.16470601-90.35294101-90.35294099v-722.82353C60.23529401 102.4 102.4 60.23529401 150.588235 60.23529401h722.82353c48.188235 0 90.352941 42.16470601 90.35294101 90.35294099v265.035294c0 18.070588 12.047059 30.117647 30.11764699 30.117647s30.117647-12.047059 30.117647-30.117647V150.588235C1024 66.258824 951.717647 0 873.411765 0z" fill="" p-id="6309"></path><path d="M909.552941 867.388235c30.117647-42.16470601 54.211765-90.352941 54.21176499-144.564706 0-132.517647-108.423529-240.941176-240.94117699-240.941176s-240.941176 108.423529-240.941176 240.941176 108.423529 240.941176 240.941176 240.94117699c54.211765 0 108.423529-18.070588 144.564706-54.21176499l102.4 102.4c6.023529 6.023529 12.047059 6.023529 24.094118 6.02353 6.023529 0 18.070588 0 24.094118-6.02353 12.047059-12.047059 12.047059-30.117647 0-42.164706l-108.42353-102.4zM722.823529 903.529412c-96.376471 0-180.70588199-78.30588199-180.705882-180.705883s78.30588199-180.70588199 180.705882-180.705882c96.376471 0 180.70588199 78.30588199 180.705883 180.705882s-84.329412 180.70588199-180.705883 180.705883zM210.823529 301.176471h602.352942c12.047059 0 30.117647-12.047059 30.11764699-30.117647s-18.070588-30.117647-30.11764699-30.117648h-602.352942c-18.070588 0-30.117647 12.047059-30.11764701 30.117648s12.047059 30.117647 30.11764701 30.117647zM210.823529 481.882353h301.176471c12.047059 0 30.117647-12.047059 30.117647-30.11764701S524.047059 421.647059 512 421.647059h-301.176471c-18.070588 0-30.117647 12.047059-30.11764701 30.11764701s12.047059 30.117647 30.11764701 30.11764699z" fill="" p-id="6310"></path></svg>